<?xml version="1.0" standalone="no"?>
<!DOCTYPE svg PUBLIC "-//W3C//DTD SVG 20010904//EN"
 "http://www.w3.org/TR/2001/REC-SVG-20010904/DTD/svg10.dtd">
<svg version="1.0" xmlns="http://www.w3.org/2000/svg"
 width="1187.000000pt" height="1519.000000pt" viewBox="0 0 1187.000000 1519.000000"
 preserveAspectRatio="xMidYMid meet">

<g transform="translate(0.000000,1519.000000) scale(0.100000,-0.100000)"
fill="#000000" stroke="none">
<path d="M0 13230 l0 -1959 33 6 c34 7 77 40 77 61 0 7 -14 12 -36 12 -31 0
-35 2 -24 15 7 8 21 15 32 15 10 0 31 12 45 27 16 15 29 21 31 15 6 -20 19
-13 32 18 8 19 26 36 45 44 20 9 34 23 38 37 3 13 9 34 12 47 6 18 4 22 -14
22 -31 0 -30 64 2 91 27 22 47 24 47 4 0 -8 8 -15 18 -15 15 0 17 6 14 34 -2
18 1 37 7 40 6 4 11 25 11 47 0 28 4 39 15 39 11 0 15 11 15 40 0 22 5 40 11
40 6 0 10 17 8 43 -3 49 19 117 38 117 8 0 13 14 13 40 0 29 -4 40 -15 40 -21
0 -19 18 5 32 26 17 26 48 0 48 -11 0 -20 4 -20 9 0 14 39 57 40 44 0 -19 92
-17 138 3 28 11 54 14 110 8 l72 -6 0 31 c0 32 1 32 43 29 35 -2 42 -6 40 -22
-1 -11 7 -31 18 -44 10 -14 19 -30 19 -37 0 -7 7 -16 16 -19 22 -8 24 -8 24 9
0 8 18 24 40 35 40 21 53 40 25 40 -9 0 -12 6 -9 15 4 8 14 15 24 15 10 0 27
11 38 25 11 14 25 25 31 25 6 0 11 4 11 9 0 5 18 12 40 16 49 8 52 29 6 46
-32 12 -34 15 -40 77 -5 48 -4 68 6 74 10 8 10 11 1 15 -7 2 -13 11 -13 19 0
10 13 14 50 14 27 0 61 5 75 12 16 7 29 8 33 2 10 -14 115 -46 143 -44 13 1
60 2 104 1 l80 -1 -38 -20 c-20 -11 -46 -20 -58 -20 -15 0 -19 -5 -14 -19 3
-12 0 -21 -10 -25 -8 -3 -15 -14 -15 -24 0 -32 -34 -54 -77 -49 l-38 4 43 1
c35 2 42 5 42 22 0 18 -7 20 -80 20 -64 0 -80 -3 -80 -15 0 -11 -11 -15 -41
-15 -38 0 -41 -2 -35 -22 3 -13 6 -26 6 -30 0 -5 9 -8 20 -8 11 0 20 -6 20
-14 0 -14 29 -26 68 -26 19 0 22 -5 22 -40 0 -22 5 -40 10 -40 6 0 10 11 10
25 0 23 4 25 40 25 36 0 40 -2 40 -25 0 -21 5 -25 30 -25 28 0 30 -2 30 -40 0
-29 4 -40 15 -40 8 0 12 6 9 14 -3 8 7 18 26 26 19 8 29 18 26 26 -3 8 1 14 9
14 10 0 15 -10 15 -30 0 -40 11 -38 51 9 19 21 44 41 56 45 12 4 26 20 31 36
8 22 15 27 31 23 17 -4 21 -13 21 -42 -1 -20 -7 -47 -15 -61 -20 -36 -19 -60
4 -60 11 0 23 4 26 10 3 5 18 7 34 4 18 -4 33 0 43 10 36 35 156 32 165 -5 5
-17 15 -19 99 -19 l94 0 0 -60 c0 -64 6 -70 39 -42 20 16 21 22 15 140 -7 119
-8 122 -31 122 -20 0 -23 -5 -23 -40 l0 -40 -40 0 -40 0 0 40 0 40 40 0 c22 0
40 5 40 10 0 6 18 10 40 10 32 0 40 -4 40 -18 0 -9 13 -28 30 -42 38 -31 38
-40 0 -40 -23 0 -30 -5 -30 -19 0 -31 21 -37 41 -12 10 12 23 20 29 16 6 -4
10 4 10 19 0 29 12 33 30 11 7 -8 21 -15 31 -15 11 0 19 -6 19 -14 0 -7 17
-18 39 -24 48 -12 87 8 111 54 8 16 19 32 25 37 6 4 4 11 -5 17 -10 6 -11 10
-2 10 7 0 12 15 12 40 0 22 -4 40 -10 40 -5 0 -10 13 -10 30 0 18 -7 34 -19
42 -17 10 -17 13 -3 27 8 9 22 16 30 16 10 0 16 10 16 28 1 19 -2 26 -11 23
-7 -3 -13 1 -13 8 0 8 13 19 30 25 16 5 30 17 30 25 0 9 5 16 10 16 6 0 10 -7
10 -15 0 -8 6 -15 14 -15 19 0 33 23 18 28 -7 2 -12 21 -12 43 0 36 2 39 29
39 18 0 31 -6 35 -17 13 -39 43 -78 59 -77 72 3 99 7 80 11 -27 5 -29 16 -8
33 10 8 15 33 16 74 1 33 3 54 6 45 3 -12 21 -18 65 -23 106 -11 133 -8 154
17 17 19 27 22 79 19 54 -3 62 -6 73 -30 6 -14 12 -30 12 -35 0 -15 48 -52 83
-63 9 -4 17 -13 17 -20 0 -22 16 -17 48 16 17 17 38 30 46 30 9 0 16 5 16 10
0 6 21 10 48 10 41 0 49 4 67 30 23 35 39 34 43 -3 2 -15 8 -27 13 -27 5 0 9
-18 9 -39 0 -50 -35 -81 -91 -81 -33 0 -39 3 -39 21 l0 20 -26 -20 c-15 -12
-33 -21 -40 -21 -7 0 -16 -9 -19 -20 -3 -11 -10 -20 -14 -20 -4 0 -8 -6 -8
-14 0 -9 16 -16 44 -19 55 -6 63 -13 35 -33 -16 -11 -22 -25 -22 -55 0 -36 2
-39 28 -39 17 0 22 -3 14 -8 -9 -6 -6 -14 13 -32 14 -13 25 -32 25 -42 0 -10
19 -31 42 -48 37 -27 48 -30 120 -30 43 0 78 -4 78 -10 0 -5 10 -15 22 -21 19
-10 25 -8 49 19 16 17 31 27 34 22 9 -15 25 -12 25 5 0 14 3 13 25 -2 18 -14
24 -27 25 -55 0 -48 -23 -51 -38 -5 l-10 32 -1 -32 c-1 -23 -6 -33 -17 -33 -9
0 -14 -6 -11 -12 2 -7 15 -12 27 -10 41 4 57 -57 20 -80 -27 -17 -26 -20 15
-42 37 -20 56 -59 37 -78 -7 -7 -3 -18 14 -35 13 -13 24 -32 24 -42 0 -9 6
-24 13 -32 10 -13 17 -14 47 -3 19 7 29 13 21 13 -11 1 -10 6 4 21 23 25 14
36 -16 20 -34 -19 -48 8 -47 89 2 78 -7 111 -30 111 -14 1 -13 4 6 19 16 14
22 30 22 58 0 22 7 48 15 59 13 18 14 17 15 -18 0 -26 4 -38 15 -38 13 0 35
-55 35 -90 0 -8 9 -28 20 -45 11 -16 19 -41 19 -55 l-1 -25 -8 25 c-6 22 -8
23 -15 8 -10 -25 1 -49 26 -55 17 -5 19 -10 13 -32 -4 -14 -7 -42 -6 -61 1
-40 -12 -60 -42 -60 -12 0 -16 -4 -11 -8 26 -18 10 -40 -43 -59 -50 -17 -54
-16 -47 7 4 14 2 20 -9 20 -19 0 -30 -17 -14 -22 16 -6 -22 -48 -43 -48 -11 0
-22 13 -29 35 -6 19 -14 34 -18 34 -20 -3 -31 3 -35 19 -2 9 -7 -7 -12 -35 -5
-35 -12 -53 -21 -53 -10 0 -14 -15 -14 -54 0 -44 -3 -56 -18 -61 -11 -3 -24
-17 -30 -30 -15 -33 -28 -32 -40 5 -7 19 -20 32 -37 36 -33 8 -45 -7 -45 -59
0 -21 -5 -47 -11 -58 -8 -16 -7 -25 5 -38 14 -15 13 -22 -10 -68 -24 -48 -25
-53 -10 -75 26 -36 19 -72 -22 -125 -20 -26 -54 -82 -75 -123 -21 -41 -51 -95
-66 -120 -16 -25 -30 -55 -30 -67 -1 -13 -5 -23 -10 -23 -12 0 -45 -86 -72
-188 -18 -67 -20 -95 -15 -215 6 -148 8 -158 38 -257 19 -64 34 -202 43 -407
2 -56 8 -110 13 -120 15 -28 52 -127 52 -138 0 -5 8 -18 18 -29 10 -12 26 -48
36 -81 10 -33 29 -85 41 -115 32 -78 43 -117 51 -185 3 -33 12 -72 20 -86 7
-14 23 -83 35 -153 21 -119 21 -136 10 -254 -24 -244 -21 -270 27 -316 20 -20
60 -48 88 -61 l52 -25 11 -67 c25 -148 30 -171 55 -266 26 -94 90 -237 106
-237 5 0 18 -19 30 -42 11 -24 25 -50 29 -58 4 -8 13 -24 19 -36 58 -115 107
-203 121 -219 50 -57 90 -135 106 -205 9 -41 30 -133 47 -205 17 -71 34 -155
38 -185 4 -30 13 -68 18 -85 6 -16 21 -64 32 -105 12 -41 26 -91 32 -110 20
-64 81 -184 124 -246 53 -75 296 -311 378 -366 33 -23 70 -50 80 -60 11 -10
29 -18 40 -18 18 0 15 5 -14 27 -33 26 -100 90 -100 96 0 1 12 3 28 2 17 0 38
-12 59 -32 38 -40 83 -45 83 -10 0 12 1 33 1 47 5 132 -3 233 -21 263 -10 17
-21 47 -25 65 -4 19 -19 42 -36 54 -21 16 -29 30 -29 53 0 22 -9 39 -29 58
-33 29 -32 47 2 105 15 24 26 32 48 32 27 0 76 23 90 43 3 4 10 7 15 6 13 -3
67 12 81 24 13 10 54 6 87 -8 17 -7 18 -5 13 17 -6 24 -4 26 31 31 62 9 116
23 142 37 14 7 42 13 62 11 46 -2 78 13 78 38 0 15 11 19 60 24 34 3 69 11 79
19 95 69 148 99 187 105 40 5 44 8 44 34 0 22 7 31 36 45 20 9 38 23 41 31 3
7 11 13 19 13 7 0 17 6 21 13 9 14 48 37 64 37 6 0 31 22 55 49 25 28 55 53
67 57 29 9 66 38 135 104 235 226 298 290 320 325 31 49 117 141 135 143 89
12 88 11 118 76 16 33 29 77 29 97 0 62 84 210 132 235 24 12 29 20 24 37 -20
70 -19 76 10 89 63 27 53 48 -23 48 -61 0 -143 32 -143 55 0 7 -7 16 -16 19
-15 6 -16 18 -10 94 3 48 13 107 22 132 9 25 20 86 26 135 10 81 23 130 48
176 5 9 14 44 20 77 7 34 19 67 26 73 11 9 14 8 14 -4 0 -9 14 -30 30 -47 17
-17 30 -38 30 -48 1 -32 29 31 30 65 0 40 -51 83 -75 63 -28 -23 -19 48 10 73
13 12 48 45 77 72 29 28 67 59 83 70 27 18 91 44 106 45 14 0 19 -106 9 -202
-8 -81 -7 -113 4 -147 l13 -45 13 35 c29 78 47 215 37 294 -5 42 -7 79 -3 82
3 3 15 -1 27 -9 21 -13 25 -12 56 23 18 20 33 40 33 45 0 5 11 30 24 55 33 60
56 164 49 215 -3 25 0 51 8 65 11 22 18 70 34 248 6 63 34 169 46 177 5 3 9
43 9 89 0 46 4 87 10 90 16 10 12 56 -11 115 -11 30 -29 84 -39 120 -10 36
-25 86 -34 111 -9 26 -15 57 -15 70 1 13 -1 36 -5 50 -5 16 -3 29 3 33 10 7
-13 89 -31 113 -14 18 -1 32 23 26 21 -6 22 -3 17 51 -4 46 -11 63 -35 89 -41
43 -57 76 -54 110 1 15 -2 27 -8 27 -6 0 -11 7 -11 15 0 8 -11 25 -25 37 -14
12 -25 28 -25 36 0 11 -3 12 -13 3 -8 -6 -17 -8 -20 -4 -4 3 -29 9 -56 14 -28
4 -65 14 -83 22 -18 9 -46 19 -63 24 -16 6 -28 12 -25 14 11 10 -38 49 -54 43
-22 -9 -46 13 -46 43 0 16 10 29 30 41 17 9 38 34 47 55 11 23 26 40 41 44 17
4 21 10 17 22 -4 9 -10 38 -14 66 -5 45 -10 52 -46 72 -50 27 -115 40 -115 23
0 -6 8 -14 19 -17 10 -2 24 -16 32 -29 11 -21 11 -27 -1 -34 -24 -15 -74 23
-65 49 3 7 0 20 -7 28 -10 12 -13 11 -23 -7 l-11 -21 -19 21 c-11 12 -29 31
-41 43 -27 28 -50 73 -59 114 -7 33 -41 67 -57 57 -5 -3 -21 6 -35 20 -14 14
-34 26 -44 26 -9 0 -30 6 -46 14 -15 8 -48 20 -73 27 -25 7 -54 19 -65 25 -11
7 -61 14 -112 16 -61 2 -93 7 -93 14 0 13 -47 7 -56 -7 -9 -15 -71 -10 -84 6
-7 9 -15 14 -17 11 -2 -2 -20 0 -40 5 -22 4 -44 4 -55 -2 -10 -5 -29 -7 -43
-3 -19 5 -25 13 -25 35 0 24 -4 29 -25 29 -18 0 -28 7 -35 24 -7 20 -18 25
-72 31 -36 4 -67 14 -73 22 -9 12 -18 13 -51 4 -54 -15 -85 -14 -123 5 -30 15
-34 15 -50 0 -19 -18 -71 -22 -71 -6 0 6 5 10 10 10 18 0 10 29 -11 41 -27 14
-86 3 -99 -19 -8 -15 -11 -15 -20 -2 -5 8 -11 19 -13 25 -2 5 -11 2 -21 -8
-12 -12 -26 -15 -44 -11 -38 9 -38 11 -18 49 10 19 16 41 13 49 -3 9 -2 18 3
21 5 3 9 18 9 33 -1 15 2 39 6 55 6 23 4 27 -14 27 -16 0 -21 -6 -21 -24 0
-13 -9 -45 -20 -71 -11 -26 -20 -54 -20 -63 0 -12 -9 -17 -32 -17 -18 -1 -46
-3 -63 -5 -26 -4 -32 -1 -45 27 -9 19 -23 33 -33 33 -20 0 -66 47 -67 68 0 7
8 12 18 11 32 -3 107 3 90 8 -22 5 -24 41 -3 49 25 10 17 24 -13 24 -15 0 -33
5 -40 12 -9 9 -12 9 -12 -1 0 -23 -149 -4 -177 22 -13 11 -23 26 -23 34 0 9
-17 13 -60 13 -33 0 -60 -4 -60 -10 0 -25 -28 -7 -34 21 -11 54 -8 69 14 69
13 0 20 7 20 19 0 11 5 23 10 26 5 3 10 12 10 19 0 10 -22 14 -85 15 -98 2
-135 13 -142 41 -3 11 -13 20 -22 20 -9 0 -25 8 -36 16 -19 15 -18 16 20 10
35 -6 38 -5 22 7 -9 8 -17 24 -17 36 0 14 -6 21 -20 21 -11 0 -23 8 -27 18 -6
17 -51 62 -62 62 -3 0 -5 20 -3 45 3 36 1 45 -12 45 -19 0 -21 14 -3 32 7 7
18 22 25 33 10 18 11 18 12 2 0 -10 5 -15 10 -12 6 3 9 23 9 43 -1 20 -3 29
-6 20 -3 -13 -15 -18 -43 -18 -21 0 -40 3 -42 8 -1 4 -21 16 -43 26 -29 14
-35 21 -22 23 13 3 17 15 17 44 0 38 1 39 36 39 19 0 33 3 30 8 -2 4 -25 6
-50 4 -43 -4 -46 -6 -46 -33 l0 -29 -77 0 -78 0 -27 39 c-16 22 -28 46 -28 54
0 8 -7 17 -15 21 -9 3 -15 19 -15 41 0 35 0 35 46 35 64 0 74 14 74 104 0 69
2 76 20 76 11 0 20 5 20 10 0 6 -18 10 -40 10 l-40 0 -2 -92 -1 -93 -8 105
c-4 58 -10 115 -14 128 -11 32 12 79 42 86 37 10 27 46 -17 60 -34 11 -35 12
-38 71 -4 96 11 240 26 241 6 1 37 2 67 3 51 1 55 3 55 25 0 30 20 47 48 40
17 -5 22 -1 28 20 3 14 10 26 15 26 5 0 9 6 9 14 0 8 16 30 36 50 35 35 69 46
76 25 4 -12 78 19 78 33 0 4 6 8 14 8 7 0 19 7 27 16 7 8 20 13 30 11 12 -3
16 0 12 9 -6 16 -29 19 -38 4 -3 -5 -15 -10 -25 -10 -10 0 -20 -6 -23 -12 -4
-10 -7 -10 -18 0 -7 6 -23 12 -36 12 -20 0 -23 5 -23 40 0 38 2 40 30 40 28 0
30 -2 30 -40 0 -22 5 -40 10 -40 6 0 10 6 10 14 0 7 7 19 15 26 20 16 19 40
-1 40 -10 0 -1 14 26 40 41 39 60 49 60 30 0 -15 69 -24 96 -12 13 6 22 17 19
24 -2 7 4 24 15 36 l20 24 30 -22 c26 -18 39 -21 76 -15 24 3 44 10 44 14 0
13 -24 31 -45 32 -11 1 -4 5 15 8 30 5 37 3 48 -16 7 -13 17 -23 22 -23 5 0
17 -13 27 -30 17 -29 19 -30 95 -30 45 0 78 -4 78 -10 0 -6 32 -10 76 -10 99
0 194 -33 194 -67 0 -14 -6 -23 -15 -23 -8 0 -15 7 -15 15 0 14 -4 14 -31 -1
-17 -8 -41 -17 -52 -20 -12 -2 -23 -8 -25 -14 -2 -5 -15 -10 -28 -10 -13 0
-24 -4 -24 -8 0 -4 -15 -13 -32 -20 -27 -10 -30 -14 -18 -22 26 -17 50 -12 50
10 0 25 3 25 45 -2 24 -16 35 -31 35 -48 0 -14 9 -31 20 -38 11 -7 20 -17 20
-22 0 -6 -9 -10 -20 -10 -15 0 -20 -7 -20 -29 0 -26 4 -29 43 -37 l42 -8 -42
-4 c-43 -3 -43 -3 -43 -43 0 -26 4 -39 14 -39 7 0 19 -7 26 -15 7 -9 19 -14
27 -11 7 3 13 -1 13 -9 0 -11 11 -15 40 -15 33 0 40 -3 40 -20 0 -18 -5 -19
-45 -13 l-45 6 0 -41 c0 -22 -4 -42 -8 -44 -4 -2 -19 -21 -32 -43 -22 -36 -25
-38 -28 -17 -2 12 -8 22 -13 22 -19 0 -74 -33 -61 -37 21 -8 13 -31 -15 -45
-41 -20 -41 -38 1 -38 25 0 36 4 36 15 0 21 12 19 33 -5 24 -28 22 -30 -28
-30 -34 0 -47 -5 -55 -19 -15 -29 -12 -41 8 -41 11 0 27 -9 38 -21 l19 -21 17
22 c16 20 18 21 18 4 0 -11 8 -24 19 -31 14 -9 20 -29 25 -99 5 -64 4 -89 -5
-95 -9 -5 -4 -14 14 -32 30 -27 35 -47 12 -47 -12 0 -15 -16 -15 -80 l0 -80
34 0 c27 0 36 -5 45 -28 12 -27 15 -29 62 -24 41 4 49 2 49 -12 0 -9 7 -16 15
-16 8 0 15 -6 15 -12 0 -8 3 -9 8 -3 4 6 15 11 25 13 14 2 17 -5 17 -38 0 -33
3 -40 20 -40 17 0 20 -7 20 -44 0 -39 -2 -44 -20 -39 -19 5 -20 0 -20 -65 0
-39 -4 -74 -10 -77 -6 -3 -10 -2 -10 4 0 12 -39 6 -54 -9 -7 -7 -4 -10 10 -10
11 0 24 -4 29 -8 14 -12 101 -43 111 -40 18 4 84 -13 84 -22 0 -6 -18 -10 -40
-10 l-40 0 0 -40 c0 -39 1 -40 36 -40 21 0 47 -8 61 -20 14 -11 35 -20 47 -20
42 0 51 -16 51 -85 0 -47 5 -69 15 -75 13 -9 13 -10 0 -11 -8 0 -3 -4 12 -9
30 -9 71 -2 63 10 -6 10 54 32 66 24 5 -3 9 -16 9 -30 0 -13 5 -24 10 -24 6 0
10 -6 10 -14 0 -7 13 -19 30 -26 34 -14 60 -40 40 -40 -10 0 -10 -3 0 -15 16
-19 30 -19 30 -1 0 17 24 28 45 20 8 -4 15 -1 15 5 0 6 5 11 10 11 6 0 10 -10
10 -22 0 -17 3 -19 9 -9 6 9 21 12 44 9 28 -3 34 -1 29 12 -4 12 -2 13 9 3 7
-7 21 -13 30 -13 9 0 20 -7 23 -16 5 -14 7 -14 22 0 8 9 29 16 45 16 22 0 29
5 29 20 0 16 7 20 38 20 38 0 87 25 77 39 -9 15 20 40 60 53 32 10 40 18 40
37 0 13 6 26 13 28 7 3 12 -4 12 -16 0 -14 6 -21 18 -21 10 0 22 -4 28 -9 5
-6 32 -6 64 -2 38 6 45 9 23 10 -18 0 -33 6 -33 11 0 16 40 51 50 45 6 -4 10
1 10 9 0 9 6 16 13 16 7 0 23 9 35 20 12 11 24 20 27 20 3 0 5 -27 5 -60 0
-42 4 -60 13 -60 10 0 12 20 9 80 l-3 80 73 2 c47 1 58 3 31 5 -56 5 -56 23 0
23 46 0 67 -13 67 -41 0 -28 17 -32 40 -9 12 12 33 20 53 20 30 0 36 5 52 40
10 22 21 40 26 40 4 0 10 -18 14 -40 l7 -40 49 0 c37 0 49 -4 49 -15 0 -12 16
-15 80 -15 64 0 80 3 80 15 0 11 -11 15 -40 15 -42 0 -55 18 -20 27 11 3 20 9
20 14 0 5 7 9 15 9 9 0 20 11 24 23 14 35 52 46 201 55 139 8 200 -1 200 -31
0 -20 58 -50 85 -43 31 8 66 93 44 107 -11 7 -10 12 9 31 l22 22 1 -24 c1 -14
1 -31 0 -38 -2 -14 52 -72 68 -72 5 0 11 12 13 28 l3 27 26 -27 c15 -16 31
-28 38 -28 6 0 11 -11 11 -25 0 -14 5 -25 11 -25 6 0 9 -7 5 -15 -3 -8 0 -15
7 -15 7 0 17 -8 24 -19 9 -15 20 -17 62 -13 44 4 51 2 51 -13 0 -13 5 -15 18
-9 9 4 36 9 59 12 35 3 44 1 50 -14 3 -11 10 -22 15 -25 5 -3 -3 -11 -17 -19
-32 -17 -31 -22 4 -43 22 -13 30 -14 34 -5 4 10 6 10 6 1 1 -7 8 -13 16 -13 9
0 15 -6 14 -12 -3 -28 2 -38 21 -38 11 0 20 -7 20 -15 0 -8 8 -15 17 -15 9 0
25 -8 35 -17 13 -12 33 -16 63 -14 27 1 45 -2 45 -8 0 -7 30 -11 80 -11 79 0
80 0 80 25 0 23 4 25 40 25 33 0 40 3 40 20 0 17 7 20 40 20 l40 0 0 -60 c0
-33 3 -60 8 -60 8 0 32 -48 32 -65 0 -7 9 -20 20 -30 11 -10 20 -28 20 -41 0
-13 7 -24 16 -26 13 -2 10 -10 -14 -38 -17 -19 -28 -38 -26 -42 3 -5 0 -24 -6
-43 -10 -29 -16 -35 -40 -35 -24 0 -30 -6 -40 -36 -10 -29 -10 -38 1 -45 11
-6 10 -9 -4 -15 -10 -4 -16 -13 -13 -20 3 -8 -3 -20 -14 -26 -13 -8 -20 -24
-20 -44 0 -22 -7 -34 -25 -44 -30 -16 -33 -58 -9 -115 15 -36 14 -78 -3 -121
-4 -10 4 -14 28 -14 l34 -1 -30 -16 c-24 -14 -26 -18 -13 -21 10 -2 18 -7 18
-12 0 -4 11 -11 25 -14 14 -4 23 -11 20 -16 -3 -5 11 -14 30 -21 19 -7 35 -15
35 -19 0 -6 -109 -40 -127 -40 -8 0 -13 -15 -13 -40 0 -29 4 -40 15 -40 8 0
15 9 15 20 0 23 10 26 28 8 18 -18 15 -28 -8 -28 -11 0 -20 -5 -20 -10 0 -7
-6 -7 -19 0 -35 18 -75 12 -86 -12 -6 -13 -20 -24 -32 -26 -13 -2 -23 -10 -23
-18 0 -8 -4 -14 -10 -14 -11 0 -14 -43 -3 -53 3 -4 7 -34 7 -67 l1 -60 -39 0
-38 0 4 -55 c3 -31 2 -51 -2 -44 -10 15 -80 -10 -80 -28 0 -7 -10 -13 -23 -13
-29 0 -57 -33 -57 -67 0 -17 13 -38 40 -64 38 -36 54 -75 28 -67 -7 3 -22 -7
-35 -21 -17 -20 -25 -23 -31 -13 -14 21 -31 -8 -33 -59 -3 -50 6 -73 25 -66
16 6 88 -25 123 -53 35 -27 43 -25 43 10 0 22 5 30 18 30 38 0 52 -32 52 -113
0 -80 -19 -111 -21 -34 -1 42 -2 41 -9 -12 -7 -47 -5 -58 13 -83 12 -16 28
-28 37 -27 8 1 24 1 35 0 18 -1 18 -3 3 -11 -9 -6 -29 -30 -45 -56 -19 -30
-37 -47 -55 -51 -19 -4 -28 -12 -28 -24 0 -11 -4 -19 -9 -19 -5 0 -12 -11 -15
-25 -4 -15 -16 -27 -31 -31 -33 -8 -32 -24 0 -24 14 0 35 -9 47 -20 12 -11 30
-20 39 -20 10 0 21 -4 24 -10 3 -5 17 -10 30 -10 13 0 27 -4 30 -10 3 -5 15
-10 26 -10 16 0 19 -7 19 -40 0 -22 -4 -40 -10 -40 -5 0 -10 -18 -10 -41 0
-32 3 -40 14 -36 11 4 13 1 9 -10 -5 -12 -1 -14 15 -9 12 3 31 9 42 12 11 3
20 1 20 -5 0 -6 18 -11 40 -11 33 0 40 3 40 20 0 17 7 20 39 20 22 0 41 5 43
10 2 6 13 12 26 13 14 1 22 8 22 19 0 14 8 18 34 18 19 0 36 -6 39 -12 3 -10
11 -10 39 0 19 6 47 12 63 12 16 0 36 7 45 15 13 12 50 16 153 19 l137 4 0
-34 0 -34 -80 0 c-69 0 -80 2 -81 18 -1 9 -5 -5 -9 -33 -4 -27 -5 -53 -3 -57
7 -13 41 -9 57 7 18 18 33 19 38 3 3 -7 21 -12 41 -11 24 1 37 -3 37 -12 0 -7
11 -23 25 -36 13 -13 25 -29 25 -35 0 -31 53 -25 71 7 12 23 39 25 39 4 0 -11
13 -15 54 -15 50 0 86 17 69 33 -7 8 19 8 125 0 l72 -5 0 -52 c0 -39 5 -56 20
-69 28 -23 25 -43 -10 -77 -33 -33 -32 -46 6 -60 31 -12 35 -60 5 -60 -11 0
-21 -5 -23 -11 -6 -18 -48 12 -48 33 0 10 -6 18 -13 18 -19 0 -40 37 -24 44 7
3 -36 2 -95 -1 -94 -5 -108 -4 -108 10 0 27 -30 47 -70 47 -21 0 -42 5 -45 10
-10 17 -25 11 -25 -10 0 -11 -4 -20 -10 -20 -5 0 -10 -9 -10 -20 0 -12 -6 -20
-12 -19 -43 5 -98 -2 -98 -14 0 -7 -22 -21 -48 -30 -38 -14 -65 -16 -129 -11
-104 9 -123 -1 -123 -60 0 -47 -9 -56 -59 -56 -34 0 -91 -19 -91 -30 0 -12 58
-30 96 -30 30 0 34 3 34 25 0 23 4 25 40 25 22 0 40 -5 40 -11 0 -6 10 -19 22
-30 l23 -18 -22 -1 c-14 0 -23 -6 -23 -16 0 -13 -10 -15 -47 -13 -69 4 -113
-8 -113 -32 0 -10 -6 -19 -14 -19 -16 0 -30 -58 -27 -112 3 -41 -10 -70 -45
-105 -13 -13 -24 -27 -24 -31 0 -19 44 -42 79 -42 22 0 44 -6 51 -15 10 -12
10 -15 -4 -15 -9 0 -16 -4 -16 -9 0 -5 -11 -12 -25 -15 -14 -4 -25 -11 -25
-16 0 -5 11 -12 25 -16 24 -6 36 -24 16 -24 -5 0 -1 -17 9 -37 10 -21 14 -39
9 -41 -12 -5 -12 -62 1 -62 6 0 10 -9 10 -19 0 -11 14 -31 30 -44 16 -14 30
-31 30 -38 0 -8 15 -10 49 -7 l49 5 23 -51 c13 -28 32 -62 43 -75 15 -17 17
-25 8 -28 -7 -3 -12 -22 -12 -44 0 -27 -4 -39 -14 -39 -9 0 -16 -12 -18 -27
-2 -21 -8 -28 -25 -27 -12 0 -23 -7 -26 -16 -7 -26 59 -14 69 13 5 16 9 5 11
-38 2 -33 10 -63 16 -68 8 -6 6 -7 -5 -3 -12 3 -23 -5 -37 -28 -12 -18 -21
-36 -21 -40 0 -3 20 -6 45 -6 25 0 45 -4 45 -9 0 -5 10 -12 23 -16 42 -12 97
-38 97 -47 0 -11 58 -10 65 2 3 6 20 -3 38 -20 18 -17 37 -28 42 -26 6 1 21
-7 35 -20 l25 -24 -23 0 c-12 0 -22 -5 -22 -11 0 -6 -9 -18 -20 -27 -19 -16
-19 -22 -8 -85 10 -60 15 -70 40 -83 22 -11 27 -20 23 -34 -3 -11 -3 -51 1
-90 6 -59 9 -70 25 -70 11 0 19 -6 19 -13 0 -8 18 -20 39 -27 22 -7 42 -19 45
-26 3 -8 10 -14 16 -14 6 0 18 -6 25 -12 27 -24 40 -33 70 -48 l30 -15 -37 -3
c-44 -4 -50 -17 -10 -25 15 -3 35 -9 45 -12 14 -6 17 -2 18 21 1 21 8 8 25
-45 17 -52 23 -84 18 -105 -8 -32 -10 -42 -12 -63 -1 -7 -9 -13 -17 -13 -10 0
-15 -10 -15 -29 0 -18 -6 -31 -17 -36 -16 -6 -15 -8 7 -20 14 -8 46 -17 73
-20 31 -5 47 -12 47 -21 0 -8 -7 -14 -15 -14 -8 0 -15 -4 -15 -10 0 -5 4 -10
9 -10 5 0 4 -11 -2 -25 -7 -14 -15 -25 -19 -25 -5 0 -8 -7 -8 -15 0 -8 -4 -15
-10 -15 -5 0 -10 -18 -10 -40 0 -57 -27 -55 -33 3 -3 33 -4 28 -5 -21 -2 -45
-6 -64 -17 -68 -8 -4 -15 -12 -15 -20 0 -8 -5 -14 -12 -14 -9 0 -9 -3 0 -12
19 -19 14 -37 -13 -44 -14 -3 -25 -10 -25 -15 0 -5 -7 -9 -15 -9 -8 0 -25 -11
-39 -25 -14 -14 -34 -25 -46 -25 -12 0 -25 -10 -32 -25 -7 -16 -19 -25 -34
-25 -13 0 -35 -5 -49 -12 l-26 -12 23 -18 23 -18 -22 0 c-20 0 -23 -5 -23 -40
0 -22 5 -40 10 -40 6 0 10 -6 10 -14 0 -8 6 -17 13 -19 6 -3 2 -6 -10 -6 -12
-1 -23 4 -25 11 -3 7 -7 6 -11 -5 -5 -13 -1 -17 17 -17 13 0 29 -7 36 -15 16
-19 40 -20 40 -1 0 18 76 26 98 10 10 -7 15 -14 12 -17 -4 -4 -68 -14 -102
-16 -5 -1 -8 -13 -8 -27 0 -24 3 -26 30 -21 19 4 34 1 44 -8 8 -8 22 -15 31
-15 24 0 14 -35 -10 -36 -11 -1 -25 -2 -32 -3 -6 -1 -15 -10 -18 -21 -3 -11
-13 -20 -20 -20 -11 0 -12 -6 -6 -22 5 -13 14 -49 21 -80 7 -38 16 -58 26 -58
10 0 14 -12 14 -40 0 -29 -4 -40 -15 -40 -11 0 -15 -11 -15 -40 0 -28 4 -40
14 -40 10 0 16 22 21 80 4 44 11 80 16 80 13 0 11 -78 -2 -82 -7 -2 -5 -16 7
-41 15 -30 23 -37 48 -37 16 0 37 -7 47 -16 22 -20 39 -11 39 20 0 28 28 34
147 32 81 -1 101 -14 122 -79 9 -25 19 -37 31 -37 12 0 20 -8 22 -22 2 -13 9
-22 16 -21 6 2 12 -6 12 -17 0 -11 -7 -20 -15 -20 -27 0 -15 -17 25 -35 42
-19 54 -45 21 -45 -18 0 -31 -25 -31 -62 0 -26 26 -22 36 5 6 16 9 6 11 -40 2
-35 9 -63 14 -63 6 0 7 -5 3 -11 -5 -8 -9 -8 -14 1 -14 23 -95 -69 -117 -135
-12 -33 -27 -74 -34 -91 -11 -27 -10 -34 4 -49 26 -26 22 -48 -8 -41 -20 5
-23 3 -18 -10 5 -13 2 -15 -17 -9 -16 5 -21 4 -18 -6 2 -7 19 -17 36 -21 22
-6 32 -15 32 -28 0 -10 5 -22 10 -25 6 -3 10 -11 10 -16 0 -5 -11 -2 -25 8
-13 10 -22 24 -20 31 3 7 1 11 -3 8 -10 -6 -73 21 -71 31 1 4 0 22 -1 38 -2
26 -3 27 -8 9 -6 -17 -11 -20 -29 -13 -13 5 -23 12 -23 17 0 4 -25 19 -55 32
-30 13 -55 28 -55 32 0 4 -7 8 -15 8 -16 0 -101 57 -191 129 -5 4 -21 14 -35
21 -13 7 -42 27 -64 44 -22 18 -60 43 -85 56 -25 13 -76 41 -115 61 -38 21
-89 46 -112 57 -23 11 -74 40 -115 65 -40 24 -104 61 -143 82 -38 21 -77 43
-85 50 -14 11 -57 32 -225 111 -33 15 -62 31 -65 34 -20 22 -492 255 -630 310
-25 10 -97 43 -160 73 -103 49 -179 80 -404 166 -51 19 -82 39 -114 73 -25 26
-82 73 -126 105 -84 60 -236 192 -319 278 -56 59 -54 56 -137 164 -36 47 -116
135 -178 197 -83 83 -112 118 -108 131 3 10 2 33 -2 52 l-7 33 -45 -37 -45
-37 -12 -112 c-6 -61 -17 -133 -24 -159 -9 -34 -10 -51 -2 -55 6 -4 12 -16 15
-27 3 -18 5 -18 22 7 20 31 66 161 66 189 0 10 6 19 13 19 44 0 95 -205 83
-339 -9 -112 -60 -303 -116 -436 -14 -32 -46 -113 -91 -230 -23 -60 -73 -184
-111 -275 -38 -91 -76 -181 -84 -200 -8 -19 -24 -52 -35 -74 -12 -21 -32 -70
-45 -108 -13 -38 -37 -99 -54 -136 -16 -37 -41 -98 -55 -137 -15 -38 -38 -94
-51 -123 -13 -29 -24 -55 -24 -59 0 -7 -69 -180 -95 -238 -7 -16 -24 -61 -38
-100 -27 -74 -49 -130 -73 -182 -8 -17 -14 -36 -14 -42 0 -6 -4 -19 -10 -29
-23 -43 -72 -179 -111 -312 -28 -96 -40 -133 -83 -255 -61 -173 -65 -182 -86
-219 -11 -20 -20 -47 -20 -60 0 -13 -9 -34 -19 -47 l-19 -24 -6 45 c-15 125
-27 173 -45 187 -13 9 -18 7 -28 -15 -6 -15 -12 -20 -12 -12 -1 8 -7 27 -15
42 -28 53 -37 178 -14 205 5 7 14 27 18 45 5 18 12 44 16 58 7 25 7 25 -14 6
-12 -11 -25 -16 -29 -13 -3 4 -11 -1 -18 -10 -11 -14 -14 -12 -28 17 -10 18
-17 39 -17 47 0 8 -16 47 -35 86 -24 49 -45 78 -66 89 -17 10 -28 22 -24 28 4
6 15 4 31 -6 23 -16 24 -16 22 9 -2 25 87 156 107 157 6 0 26 24 45 53 34 53
36 54 77 49 44 -5 130 21 150 46 7 8 19 11 32 7 16 -5 20 -3 15 9 -4 11 -1 16
10 16 23 0 20 23 -9 54 -14 15 -25 30 -25 34 0 4 -10 18 -23 32 -13 14 -35 42
-49 64 -15 21 -57 70 -94 108 l-67 69 -19 -21 c-13 -14 -26 -19 -39 -15 -21 7
-57 -3 -266 -72 -73 -23 -135 -43 -139 -43 -3 0 -4 7 -1 14 4 9 -2 17 -14 21
-10 4 -19 10 -19 14 0 10 29 34 60 49 67 33 281 106 325 111 l50 6 -38 39
c-35 36 -39 37 -60 24 -12 -8 -56 -27 -97 -43 -74 -28 -113 -44 -241 -104 -36
-17 -70 -31 -75 -31 -6 0 -10 16 -10 35 1 22 6 35 14 35 7 0 15 6 18 13 5 13
62 42 159 82 22 9 48 20 57 25 10 6 24 10 32 10 7 0 27 7 42 15 16 8 37 15 47
15 25 0 21 31 -11 67 -15 17 -45 51 -66 76 l-39 44 -134 -5 c-130 -4 -134 -4
-140 17 -13 49 -83 11 -193 -105 -69 -73 -200 -271 -200 -302 0 -7 -27 -69
-61 -140 -93 -195 -169 -355 -187 -396 -13 -27 29 19 113 124 52 66 118 146
147 177 57 63 149 143 165 143 5 0 15 -15 21 -33 57 -163 69 -198 75 -204 4
-3 7 -17 7 -29 0 -23 17 -75 46 -139 8 -21 11 -50 7 -88 -6 -56 -7 -58 -57
-88 -28 -17 -63 -46 -78 -63 -28 -32 -33 -45 -63 -151 -33 -115 -46 -160 -55
-180 -5 -11 -11 -31 -13 -45 -5 -25 -80 -280 -99 -335 -6 -16 -14 -52 -18 -80
-5 -27 -20 -93 -35 -145 -22 -81 -40 -162 -85 -385 -5 -22 -14 -71 -20 -110
-7 -38 -16 -79 -20 -90 -5 -11 -12 -72 -15 -135 -19 -321 -24 -379 -36 -432
-7 -32 -16 -58 -19 -58 -9 0 -30 160 -30 221 1 24 9 91 18 149 17 102 13 180
-8 180 -5 0 -11 19 -15 43 -14 91 -37 193 -50 222 -16 36 -45 259 -44 341 0
33 4 81 8 109 9 49 -10 252 -28 305 -5 16 -3 46 6 80 8 30 17 65 20 78 9 37
-14 25 -34 -17 -10 -22 -28 -45 -40 -52 -12 -6 -27 -26 -33 -42 -7 -20 -14
-27 -20 -21 -17 17 -23 155 -9 224 6 36 14 92 16 125 4 51 1 63 -17 83 -26 27
-44 134 -34 200 5 36 9 42 25 37 24 -8 32 25 21 85 -10 56 20 484 42 590 9 41
16 78 16 83 0 4 6 7 14 7 16 0 22 35 32 191 6 93 24 161 24 93 0 -17 6 -51 13
-75 8 -24 12 -51 10 -59 -3 -10 -2 -11 4 -4 4 6 19 13 31 17 21 5 23 3 18 -19
-5 -17 -2 -24 9 -24 8 0 15 -9 15 -20 0 -23 -10 -26 -28 -8 -9 9 -13 7 -18 -5
-8 -23 5 -40 26 -34 11 3 21 -1 24 -9 8 -21 24 -17 31 7 4 13 2 25 -5 29 -9 6
-11 23 -6 61 9 65 7 231 -3 279 -4 19 -5 77 -3 128 3 71 7 92 18 92 10 0 13 8
10 23 -19 89 -29 128 -36 132 -5 3 -11 23 -15 45 -4 22 -10 40 -14 40 -4 0
-15 39 -25 88 -18 92 -24 216 -12 268 5 25 4 31 -10 31 -16 0 -75 -75 -163
-205 -53 -79 -99 -112 -286 -207 -82 -41 -186 -95 -230 -119 -44 -23 -127 -68
-185 -98 -171 -89 -322 -173 -370 -204 -25 -15 -54 -33 -65 -39 -61 -34 -120
-68 -202 -119 -51 -31 -94 -56 -97 -56 -2 0 -37 -15 -78 -34 -40 -18 -89 -39
-108 -46 -19 -8 -52 -24 -72 -36 -20 -13 -48 -26 -62 -30 -14 -3 -30 -12 -37
-20 -6 -8 -15 -14 -20 -14 -5 0 -48 -24 -96 -53 -48 -29 -119 -71 -158 -92
-74 -40 -203 -124 -226 -148 -8 -7 -44 -28 -81 -46 -78 -38 -151 -104 -200
-181 -40 -64 -108 -212 -108 -235 0 -9 -6 -28 -14 -43 -15 -29 -27 -86 -46
-217 -7 -44 -19 -114 -27 -155 -8 -41 -17 -147 -19 -235 -7 -245 -24 -354 -82
-530 -80 -240 -108 -395 -118 -640 -4 -99 -1 -132 14 -188 18 -63 19 -73 5
-120 -41 -148 -134 -521 -153 -617 -6 -30 -15 -77 -20 -105 -5 -27 -17 -86
-25 -130 -9 -44 -20 -107 -25 -140 -6 -33 -12 -71 -14 -85 -2 -14 -12 -83 -21
-155 -9 -71 -20 -164 -26 -205 -10 -85 -31 -787 -27 -921 3 -89 -3 -112 -24
-91 -15 15 -58 16 -58 2 0 -5 9 -10 21 -10 14 0 19 -5 17 -18 -4 -23 -48 -30
-48 -7 0 13 -7 15 -37 9 -43 -8 -49 -11 -39 -21 4 -5 2478 -9 5497 -11 l5489
-2 0 7595 0 7595 -5935 0 -5935 0 0 -1960z m4320 930 c0 -5 -4 -10 -10 -10 -5
0 -10 5 -10 10 0 6 5 10 10 10 6 0 10 -4 10 -10z m1437 -86 c-3 -3 -12 -4 -19
-1 -8 3 -5 6 6 6 11 1 17 -2 13 -5z m163 -204 c0 -6 -33 -10 -80 -10 -47 0
-80 4 -80 10 0 6 33 10 80 10 47 0 80 -4 80 -10z m-220 -160 c0 -22 -4 -40
-10 -40 -5 0 -10 18 -10 40 0 22 5 40 10 40 6 0 10 -18 10 -40z m27 -22 c-2
-13 -4 -3 -4 22 0 25 2 35 4 23 2 -13 2 -33 0 -45z m74 2 c40 0 52 -13 22 -24
-10 -3 -26 -11 -35 -18 -23 -17 -31 -6 -33 49 -1 27 0 36 2 21 4 -25 8 -28 44
-28z m-81 -108 c0 -10 -22 -32 -32 -32 -4 0 -8 9 -8 20 0 13 7 20 20 20 11 0
20 -4 20 -8z m-3911 -178 c43 -9 39 -21 -10 -29 -42 -7 -67 4 -55 24 8 13 21
14 65 5z m149 -123 c-6 -77 -3 -91 23 -91 12 0 19 -7 19 -20 0 -17 7 -20 40
-20 l40 0 0 40 0 40 80 0 80 0 0 -100 0 -100 -120 0 -120 0 0 40 0 40 -40 0
c-38 0 -40 2 -40 30 0 17 -4 30 -10 30 -5 0 -10 -9 -10 -20 0 -10 -8 -24 -17
-29 -15 -9 -14 -10 10 -11 25 0 27 -3 27 -40 l0 -40 -40 0 c-39 0 -40 -1 -40
-33 0 -32 -1 -33 -40 -31 -39 2 -40 1 -40 -32 l0 -34 -80 0 c-79 0 -80 0 -80
25 0 21 -5 25 -30 25 -28 0 -30 2 -30 40 l0 40 -52 -2 c-51 -1 -51 -2 -10 -5
53 -5 55 -23 2 -23 -33 0 -40 -3 -40 -20 0 -17 -7 -20 -40 -20 -29 0 -40 4
-40 15 0 11 -11 15 -40 15 -29 0 -40 4 -40 15 0 11 12 16 43 17 l42 1 -42 4
c-35 3 -43 8 -43 24 0 17 7 19 79 19 63 0 80 -3 83 -15 2 -12 10 -10 41 11 42
31 47 44 16 44 -15 0 -20 5 -17 23 2 13 10 22 21 21 9 0 35 -1 57 -2 33 -2 40
-6 40 -22 0 -18 7 -20 80 -20 l80 0 0 -40 0 -40 40 0 c40 0 40 0 40 39 l0 39
-80 7 -80 7 0 34 0 34 80 0 80 0 0 40 c0 32 4 40 19 40 14 0 20 10 25 39 6 42
16 50 54 43 24 -5 24 -7 20 -71z m6282 -41 c0 -29 5 -50 11 -50 5 0 7 -5 3
-12 -6 -9 -9 -9 -12 0 -2 7 -10 12 -18 12 -10 0 -14 13 -14 43 0 24 3 47 7 50
16 17 23 3 23 -43z m-6553 -32 c-3 -8 -6 -5 -6 6 -1 11 2 17 5 13 3 -3 4 -12
1 -19z m2960 -10 c-3 -8 -6 -5 -6 6 -1 11 2 17 5 13 3 -3 4 -12 1 -19z m-3183
-4 c9 -22 8 -24 -9 -24 -8 0 -15 9 -15 20 0 24 15 27 24 4z m2326 -8 c0 -2 -7
-9 -15 -16 -12 -10 -15 -10 -15 4 0 9 7 16 15 16 8 0 15 -2 15 -4z m4370 -27
c0 -6 18 -9 45 -8 24 2 47 0 50 -3 8 -7 -17 -61 -32 -71 -7 -4 -13 -17 -13
-27 0 -15 -7 -20 -25 -20 -16 0 -25 -6 -25 -15 0 -11 -11 -15 -40 -15 -29 0
-40 4 -40 15 0 8 9 15 20 15 13 0 25 12 35 36 13 33 13 37 -5 57 -25 26 -25
34 -2 40 29 8 32 7 32 -4z m-7094 -29 c15 -15 5 -100 -12 -100 -10 0 -14 15
-14 55 0 54 6 65 26 45z m134 -110 c0 -5 -18 -10 -40 -10 -22 0 -40 5 -40 10
0 6 18 10 40 10 22 0 40 -4 40 -10z m2157 -52 c-2 -13 -4 -3 -4 22 0 25 2 35
4 23 2 -13 2 -33 0 -45z m288 41 c4 -12 12 -18 21 -15 10 4 14 -2 14 -19 0
-16 6 -25 15 -25 11 0 15 -11 15 -40 0 -29 -4 -40 -15 -40 -10 0 -15 10 -15
26 0 22 -3 25 -22 20 -13 -3 -31 -6 -40 -6 -13 0 -18 -11 -21 -42 -3 -36 -5
-39 -11 -20 -5 12 -16 22 -26 22 -10 0 -21 6 -24 13 -5 10 -7 10 -12 0 -3 -7
-15 -13 -25 -13 -17 0 -20 6 -17 43 2 33 7 42 21 41 9 -1 17 2 17 7 0 17 36 9
50 -11 23 -31 30 -24 30 30 0 43 3 50 19 50 11 0 23 -9 26 -21z m905 -19 l7
45 1 -42 c1 -28 7 -43 15 -43 7 0 23 -13 35 -30 20 -26 29 -30 72 -30 27 0 52
-4 55 -10 4 -6 -23 -10 -73 -10 l-80 0 -4 -47 c-3 -44 -1 -50 34 -85 21 -21
38 -41 38 -44 0 -12 -63 -64 -79 -65 -23 -1 49 -27 78 -28 16 -1 21 3 18 13
-4 9 4 16 21 21 15 4 30 12 35 18 5 9 11 7 21 -5 7 -10 22 -18 32 -18 18 0 94
54 102 72 2 5 12 8 22 8 9 0 23 7 30 15 19 23 30 18 30 -14 0 -20 6 -30 20
-34 24 -6 27 -43 6 -66 -19 -22 -30 -61 -17 -61 6 0 11 -18 11 -40 0 -22 -4
-40 -10 -40 -5 0 -10 5 -10 10 0 6 -18 10 -40 10 -29 0 -40 4 -40 15 0 22 -16
18 -27 -7 -10 -24 2 -68 19 -68 4 0 8 -9 8 -20 0 -11 -7 -20 -15 -20 -12 0
-14 -4 -7 -17 7 -12 5 -24 -5 -40 -20 -31 -31 -29 -25 4 5 29 -17 53 -51 53
-22 0 -56 37 -57 63 0 21 -30 23 -30 2 0 -9 7 -18 15 -21 20 -8 20 -64 1 -64
-8 0 -18 5 -21 10 -3 6 -24 10 -45 10 -34 0 -41 -4 -46 -25 -3 -14 -12 -25
-20 -25 -8 0 -31 -16 -53 -35 -21 -19 -45 -35 -53 -35 -20 0 -53 -26 -53 -42
0 -7 -7 -13 -15 -13 -9 0 -17 -13 -21 -35 -4 -19 -7 -30 -8 -24 0 6 -4 26 -7
43 -5 24 -3 31 9 31 11 0 17 12 19 42 2 23 8 43 16 44 7 1 8 0 2 -3 -17 -8
-11 -23 9 -23 12 0 23 11 29 28 8 22 6 33 -9 51 -11 14 -19 39 -19 61 0 21 -5
40 -12 42 -9 3 -8 13 4 39 17 33 16 34 -2 37 -41 7 -19 34 45 54 l50 15 0 83
c0 61 -4 85 -14 88 -9 3 -11 -2 -8 -14 3 -11 2 -50 -2 -89 l-8 -70 -2 88 -1
87 -55 0 c-48 0 -55 3 -55 19 0 23 16 36 25 21 7 -12 95 -14 95 -2 0 5 10 19
22 31 16 18 23 41 27 100 5 66 7 70 10 31 l5 -45 6 45z m-2196 0 c42 -19 61
-40 36 -40 -5 0 -10 -18 -10 -40 0 -22 5 -40 10 -40 18 0 10 -18 -21 -49 -37
-37 -49 -39 -49 -8 0 13 -9 32 -20 42 -11 10 -20 23 -20 28 0 6 -9 21 -21 33
l-21 22 33 36 c18 20 33 36 34 36 2 0 23 -9 49 -20z m-114 -20 c0 -18 -7 -20
-80 -20 -73 0 -80 2 -80 20 0 18 7 20 80 20 73 0 80 -2 80 -20z m-1121 -6 c9
-8 -75 -2 -94 6 -12 5 1 6 35 3 30 -3 57 -7 59 -9z m1601 1 c0 -11 11 -15 40
-15 32 0 40 -4 40 -18 0 -9 9 -23 20 -30 11 -7 20 -18 20 -26 0 -17 -33 -31
-38 -17 -2 6 -21 11 -43 11 -39 0 -39 0 -39 40 l0 40 -40 0 -40 0 0 -65 0 -65
40 0 c29 0 40 -4 40 -15 0 -12 -16 -15 -80 -15 l-80 0 0 89 0 90 43 4 c98 9
117 7 117 -8z m160 -21 c0 -38 -15 -42 -34 -10 -9 13 -7 20 8 32 26 19 26 19
26 -22z m-1764 1 l42 6 7 -81 c5 -58 11 -80 21 -80 8 0 14 -4 14 -10 0 -5 -18
-10 -40 -10 -33 0 -40 -3 -40 -20 0 -17 -7 -20 -40 -20 -38 0 -40 2 -40 30 l0
30 -100 0 c-60 0 -100 4 -100 10 0 6 9 19 20 30 12 12 18 25 15 30 -4 6 3 10
15 10 15 0 22 8 27 30 6 33 23 41 23 11 0 -11 5 -23 10 -26 6 -3 10 4 10 15 0
21 2 22 80 15 51 -5 80 -4 80 3 0 5 -36 13 -80 17 -44 4 -82 10 -85 14 -2 4
24 4 58 -1 34 -5 81 -6 103 -3z m244 -35 l0 -40 40 0 40 0 0 -40 0 -40 -40 0
-40 0 0 40 c0 29 -4 40 -15 40 -11 0 -15 11 -15 40 0 29 4 40 15 40 11 0 15
-11 15 -40z m97 -22 c-2 -13 -4 -3 -4 22 0 25 2 35 4 23 2 -13 2 -33 0 -45z
m666 45 c-24 -2 -43 -8 -43 -14 0 -5 -18 -9 -40 -9 -29 0 -40 4 -40 15 0 12
15 15 83 13 45 -1 63 -3 40 -5z m-123 -47 c0 -8 6 -17 13 -20 10 -5 10 -7 0
-12 -7 -3 -13 -18 -13 -34 0 -26 -3 -28 -42 -31 l-43 -4 3 58 4 57 39 0 c27 0
39 -4 39 -14z m2320 -23 l0 -36 -19 21 c-10 12 -28 22 -40 22 -11 0 -21 4 -21
10 0 5 6 7 14 4 8 -3 17 -1 21 5 3 6 15 11 26 11 15 0 19 -7 19 -37z m-214
-48 c4 -16 13 -25 25 -25 23 0 24 -13 2 -31 -13 -11 -17 -11 -21 -1 -2 7 -10
19 -18 26 -16 17 -19 56 -4 56 5 0 12 -11 16 -25z m4933 -112 c-1 -24 -3 -29
-6 -15 -2 12 -9 22 -15 22 -6 0 -6 6 2 15 18 22 20 19 19 -22z m-4669 -44 c0
-32 -4 -49 -11 -47 -6 2 -10 7 -10 11 1 4 1 25 1 47 0 22 5 40 10 40 6 0 10
-23 10 -51z m2030 -16 c0 -29 -3 -34 -12 -25 -7 7 -25 12 -40 12 -23 0 -28 4
-28 25 0 23 4 25 40 25 39 0 40 0 40 -37z m-5520 2 c0 -23 128 -21 146 3 13
16 13 16 14 0 0 -14 9 -18 40 -18 22 0 40 -4 40 -10 0 -5 -18 -10 -40 -10 -29
0 -40 -4 -40 -15 0 -14 -3 -14 -30 0 -17 9 -40 13 -50 10 -26 -8 -160 5 -160
16 0 5 6 9 14 9 7 0 19 7 26 15 7 8 19 15 26 15 8 0 14 -7 14 -15z m8277 -20
c6 -17 -27 -61 -36 -47 -3 5 -14 11 -23 15 -10 3 -18 13 -18 21 0 8 -10 17
-22 19 -13 2 3 5 35 6 43 1 59 -3 64 -14z m346 8 c-13 -2 -33 -2 -45 0 -13 2
-3 4 22 4 25 0 35 -2 23 -4z m-223 -25 c0 -17 10 -28 38 -40 l37 -16 -77 -1
-78 -1 0 40 0 40 40 0 c35 0 40 -3 40 -22z m290 8 c0 -8 -7 -16 -15 -20 -10
-4 -15 1 -15 14 0 11 7 20 15 20 8 0 15 -6 15 -14z m-4280 -21 c0 -19 -20 -29
-32 -17 -8 8 -7 16 2 26 14 17 30 12 30 -9z m-90 -7 c0 -14 -9 -18 -40 -18
-22 0 -40 -4 -40 -10 0 -5 -4 -10 -9 -10 -5 0 -3 13 5 29 12 25 20 29 49 28
26 -2 35 -7 35 -19z m-43 -34 c-3 -3 -12 -4 -19 -1 -8 3 -5 6 6 6 11 1 17 -2
13 -5z m3 -94 c0 -5 -2 -10 -4 -10 -3 0 -8 5 -11 10 -3 6 -1 10 4 10 6 0 11
-4 11 -10z m-1138 -25 c0 -5 -5 -11 -11 -13 -6 -2 -11 4 -11 13 0 9 5 15 11
13 6 -2 11 -8 11 -13z m1238 -10 c-7 -9 -15 -13 -19 -10 -3 3 1 10 9 15 21 14
24 12 10 -5z m39 8 c0 -5 -4 -17 -9 -28 -8 -18 -9 -17 -9 8 -1 15 4 27 9 27 6
0 10 -3 9 -7z m-4219 -33 c0 -6 -13 -10 -30 -10 -30 0 -43 24 -17 33 15 5 47
-10 47 -23z m400 0 c0 -6 -9 -10 -20 -10 -13 0 -20 7 -20 20 0 18 3 19 20 10
11 -6 20 -15 20 -20z m3597 -2 c-4 -15 1 -30 14 -45 l21 -22 -36 -6 c-30 -6
-34 -10 -25 -21 9 -11 7 -14 -8 -14 -10 0 -24 -5 -30 -11 -8 -8 -17 -8 -32 0
-17 10 -21 9 -21 -4 0 -9 -5 -13 -10 -10 -14 8 -3 24 24 35 20 8 19 9 -6 9
-15 1 -41 9 -58 20 l-31 18 35 21 c45 26 114 51 145 52 19 0 22 -4 18 -22z
m-4197 2 c0 -6 -33 -9 -82 -8 -71 1 -77 2 -38 8 70 11 120 11 120 0z m3380
-14 c0 -14 -4 -28 -10 -31 -5 -3 -10 3 -10 14 0 18 -7 21 -42 23 l-43 1 45 7
c25 4 48 8 53 8 4 1 7 -9 7 -22z m890 14 c0 -5 -5 -10 -11 -10 -5 0 -7 5 -4
10 3 6 8 10 11 10 2 0 4 -4 4 -10z m417 -20 c2 -25 -15 -36 -24 -15 -5 13 4
27 22 35 1 0 1 -9 2 -20z m-119 -15 c-3 -3 -9 2 -12 12 -6 14 -5 15 5 6 7 -7
10 -15 7 -18z m57 5 c3 -5 -1 -10 -9 -10 -9 0 -16 5 -16 10 0 6 4 10 9 10 6 0
13 -4 16 -10z m-4785 -30 l0 -30 -122 2 c-68 1 -104 3 -80 5 23 2 42 8 42 12
0 5 10 12 23 16 12 5 31 11 42 15 11 5 37 8 58 9 35 1 37 -1 37 -29z m4601 7
c-13 -13 -26 -3 -16 12 3 6 11 8 17 5 6 -4 6 -10 -1 -17z m-3763 -20 c2 -12
-3 -17 -17 -17 -15 0 -21 6 -21 21 0 25 33 22 38 -4z m2657 13 c8 -12 -5 -80
-15 -80 -10 0 -16 38 -12 68 4 23 16 29 27 12z m505 -15 c0 -8 5 -15 11 -15 6
0 4 -7 -5 -15 -12 -12 -23 -14 -48 -7 -56 14 -40 39 35 51 4 0 7 -6 7 -14z
m440 -4 c0 -5 -9 -11 -20 -14 -20 -5 -26 3 -13 16 9 10 33 8 33 -2z m410 -11
c20 -12 12 -17 -34 -22 -46 -4 -63 18 -19 25 15 2 30 5 33 5 3 1 12 -2 20 -8z
m65 -10 c-3 -5 -13 -10 -21 -10 -8 0 -14 5 -14 10 0 6 9 10 21 10 11 0 17 -4
14 -10z m442 4 c-3 -3 -12 -4 -19 -1 -8 3 -5 6 6 6 11 1 17 -2 13 -5z m-1747
-101 c0 -12 -4 -24 -9 -28 -16 -9 -23 13 -16 47 5 22 9 27 16 17 5 -8 9 -24 9
-36z m1922 30 c10 -9 18 -24 18 -35 0 -14 -8 -18 -37 -18 -43 0 -116 23 -120
37 -10 30 109 44 139 16z m-1612 -18 c0 -8 -9 -15 -20 -15 -13 0 -20 -7 -20
-19 0 -26 18 -37 26 -17 7 18 39 22 49 6 3 -6 -1 -17 -9 -25 -8 -9 -23 -29
-33 -45 -21 -36 -29 -37 -37 -7 -6 22 -7 22 -22 -5 -13 -24 -58 -42 -52 -20 1
4 -2 17 -6 30 -4 14 -3 28 3 36 6 7 7 16 3 21 -4 4 2 5 14 1 28 -9 48 16 40
49 -6 23 -4 25 29 25 24 0 35 -5 35 -15z m4960 -194 c0 -10 -3 -11 -14 -2 -8
7 -25 9 -43 5 -28 -7 -28 -7 -10 13 15 17 22 19 42 9 14 -6 25 -17 25 -25z
m-5070 -16 c0 -8 -7 -15 -15 -15 -16 0 -20 12 -8 23 11 12 23 8 23 -8z m-4130
-55 c0 -29 -4 -40 -15 -40 -9 0 -15 9 -15 25 0 14 4 25 10 25 5 0 7 7 4 15 -4
8 -1 15 5 15 6 0 11 -17 11 -40z m-63 -102 c-2 -13 -4 -3 -4 22 0 25 2 35 4
23 2 -13 2 -33 0 -45z m-17 7 c0 -16 -6 -25 -15 -25 -15 0 -21 31 -8 43 13 14
23 6 23 -18z m9240 -32 c-1 -11 -26 -43 -34 -43 -3 0 -6 11 -6 25 0 18 5 25
20 25 11 0 20 -3 20 -7z m-2130 -172 c0 -5 -6 -14 -14 -20 -16 -13 -32 2 -21
19 8 12 35 13 35 1z m2205 -180 c3 -5 -4 -12 -15 -16 -11 -3 -20 -11 -20 -16
0 -5 -18 -9 -40 -9 -22 0 -40 5 -40 10 0 6 18 10 40 10 29 0 40 4 40 15 0 16
25 21 35 6z m-234 -122 c8 0 5 -4 -6 -9 -31 -14 -35 -12 -35 18 1 24 2 25 14
10 7 -10 19 -18 27 -19z m-1564 -311 c-3 -8 -6 -5 -6 6 -1 11 2 17 5 13 3 -3
4 -12 1 -19z m-1949 -866 c3 -10 -4 -13 -24 -10 -15 2 -29 9 -32 16 -3 10 4
13 24 10 15 -2 29 -9 32 -16z m-1130 -51 c7 -4 36 -3 64 2 36 7 52 7 57 -1 4
-7 34 -17 67 -24 32 -6 70 -20 83 -30 29 -22 54 -23 72 -2 7 9 24 20 38 25 19
8 28 5 43 -11 24 -25 39 -25 72 1 21 17 26 18 26 5 0 -10 9 -16 25 -16 19 0
25 5 25 23 0 16 3 18 9 8 7 -10 13 -11 30 -2 17 9 30 9 56 0 29 -11 37 -10 52
3 22 19 126 23 183 8 29 -8 44 -7 58 1 15 10 30 9 69 -4 27 -9 83 -21 124 -27
41 -7 108 -20 151 -31 42 -10 94 -19 116 -19 22 0 59 -7 82 -15 23 -8 54 -15
69 -16 23 0 24 -1 6 -9 -16 -7 -14 -9 15 -9 24 -1 31 2 21 8 -24 15 38 21 124
12 44 -4 83 -6 87 -4 4 2 35 6 68 8 33 2 69 9 79 15 11 5 37 10 57 10 21 0 52
5 70 12 29 10 36 9 54 -7 11 -10 20 -26 20 -36 0 -10 10 -38 23 -61 12 -24 27
-63 34 -88 6 -25 17 -65 23 -90 15 -56 28 -86 55 -125 39 -56 57 -140 52 -250
-4 -104 -22 -195 -38 -195 -15 0 -10 -46 6 -60 11 -9 12 -16 3 -30 -14 -22 -3
-54 16 -47 8 3 16 0 19 -6 3 -11 1 -135 -3 -147 -1 -3 -2 -54 -1 -113 0 -71
-4 -122 -14 -150 -8 -23 -15 -52 -15 -64 0 -12 -14 -38 -31 -57 -17 -20 -28
-40 -25 -45 4 -5 2 -21 -4 -36 -8 -20 -15 -25 -30 -20 -17 5 -20 2 -20 -22 0
-15 -4 -42 -9 -60 -6 -19 -5 -35 1 -41 13 -13 -12 -89 -39 -114 l-22 -20 26
-23 26 -22 -31 -68 c-18 -37 -32 -75 -32 -85 0 -24 -25 -33 -40 -15 -7 8 -16
12 -21 9 -13 -8 -11 -42 2 -46 18 -6 -9 -49 -28 -46 -8 2 -20 -4 -26 -13 -8
-13 -3 -24 26 -53 20 -20 44 -36 54 -37 11 0 13 -3 6 -6 -7 -2 -13 -13 -13
-23 0 -30 -40 -90 -65 -96 -14 -3 -29 -21 -40 -44 -20 -45 -50 -75 -85 -85
-30 -9 -40 -22 -40 -52 0 -13 -6 -23 -13 -23 -8 0 -22 -9 -32 -20 -10 -11 -27
-20 -37 -20 -12 0 -25 -14 -37 -42 -20 -45 -36 -61 -92 -92 -18 -10 -56 -41
-82 -69 -41 -42 -53 -48 -77 -44 -21 5 -33 0 -50 -19 -13 -13 -33 -24 -44 -24
-11 0 -29 -8 -40 -18 -24 -21 -102 -46 -116 -37 -6 3 -10 1 -10 -4 0 -6 -8
-11 -18 -11 -9 0 -29 -11 -44 -25 -29 -27 -57 -32 -76 -13 -10 10 -16 7 -28
-11 -9 -12 -26 -26 -38 -32 -11 -5 -28 -13 -36 -18 -37 -22 -69 -33 -78 -27
-10 6 -101 -9 -132 -21 -26 -11 -64 -11 -97 -1 -26 7 -36 6 -49 -6 -14 -14
-18 -14 -47 0 -37 19 -47 32 -40 50 7 18 -13 26 -26 10 -9 -11 -8 -17 4 -29
19 -19 19 -43 1 -50 -15 -6 -36 11 -36 29 0 7 6 14 13 17 6 2 9 7 5 11 -3 4
-17 2 -30 -5 -33 -19 -90 -39 -110 -39 -21 0 -24 16 -5 23 7 3 0 16 -22 35
-23 22 -38 29 -52 24 -32 -12 -99 -2 -99 15 0 11 -7 14 -24 9 -28 -7 -48 13
-65 66 -9 25 -19 38 -34 40 -13 2 -35 23 -55 53 -23 35 -39 49 -52 48 -24 -3
-47 37 -60 110 -6 28 -15 54 -20 55 -6 2 -10 9 -10 15 0 7 -18 32 -40 57 -22
24 -40 50 -40 57 0 7 -3 13 -7 13 -5 0 -19 29 -32 65 -14 36 -28 65 -32 65 -4
0 -9 8 -13 18 -14 41 -78 134 -113 166 -13 11 -23 28 -23 38 0 10 -4 18 -10
18 -5 0 -12 11 -16 25 -3 14 -9 25 -13 25 -6 0 -14 32 -56 225 -10 44 -11 73
-4 110 25 127 32 336 11 357 -7 7 -12 36 -12 65 0 29 -4 53 -10 53 -13 0 -50
37 -50 50 0 6 -4 19 -10 30 -5 11 -14 29 -20 40 -5 10 -13 38 -16 62 -4 24
-11 48 -16 55 -5 6 -8 31 -6 55 2 34 7 44 23 47 26 5 36 21 30 49 -4 15 -1 22
10 22 8 0 22 12 32 28 10 15 22 30 27 33 5 4 5 12 1 19 -5 9 -4 11 4 6 7 -5
15 4 22 23 13 36 32 39 87 14 33 -15 91 -25 132 -22 8 0 58 2 110 4 88 3 96 5
115 29 11 14 39 49 63 78 23 28 42 55 42 60 0 16 19 8 22 -9 5 -21 -13 -73
-24 -73 -5 0 -13 -11 -18 -25 -5 -14 -16 -25 -25 -25 -12 0 -14 -6 -8 -27 9
-31 8 -79 -2 -135 -5 -28 -2 -48 14 -81 12 -24 21 -49 21 -55 0 -22 -39 -124
-54 -141 -7 -9 -16 -45 -18 -80 -4 -63 -4 -64 14 -41 15 18 21 20 33 10 31
-25 12 -80 -27 -80 -13 0 -18 -8 -18 -25 0 -22 -4 -25 -40 -25 -33 0 -40 -3
-40 -20 0 -11 -4 -20 -10 -20 -14 0 -13 -61 2 -132 11 -53 15 -60 50 -76 39
-18 49 -32 23 -32 -13 0 -14 -4 -5 -20 8 -15 6 -24 -9 -39 -11 -11 -17 -22
-13 -26 3 -3 -3 -8 -13 -11 -18 -5 -75 -103 -75 -129 0 -6 -11 -20 -24 -32
-26 -25 -41 -79 -37 -131 1 -18 -2 -38 -7 -45 -20 -26 -20 -60 -1 -96 10 -20
24 -63 31 -96 13 -65 58 -127 58 -80 0 25 25 27 66 7 41 -21 141 -40 114 -22
-10 6 -3 7 25 3 22 -4 45 -12 52 -18 7 -7 34 -16 60 -20 26 -3 58 -13 70 -21
12 -8 39 -14 60 -14 20 0 90 -7 156 -16 116 -16 122 -16 225 5 59 11 119 21
135 21 15 0 27 4 27 9 0 5 17 7 38 4 33 -4 39 -1 57 26 21 32 31 38 108 68 29
11 57 30 70 48 11 17 39 51 61 76 23 26 54 63 70 83 15 20 36 36 45 36 25 0
53 34 45 54 -3 9 -11 16 -16 16 -6 0 -8 9 -5 19 3 13 -1 21 -14 24 -11 3 -21
2 -24 -3 -2 -4 -24 -4 -47 0 -24 5 -46 6 -50 3 -5 -2 -80 -4 -167 -4 -110 1
-160 -2 -163 -10 -3 -8 -28 -9 -88 -4 -56 5 -78 10 -65 15 24 9 13 14 -50 25
-58 10 -93 7 -128 -11 -28 -15 -31 -15 -43 1 -8 11 -26 18 -45 17 -17 0 -48 9
-68 22 -20 12 -63 28 -96 35 -111 24 -126 31 -116 49 5 9 10 22 10 27 3 17 45
75 56 75 6 1 24 19 40 40 17 21 35 39 41 40 7 0 14 7 18 15 4 11 21 15 66 15
75 0 140 31 140 68 0 38 -18 62 -47 62 -52 0 -106 36 -139 92 -50 85 -56 110
-39 180 7 33 21 68 29 77 9 10 16 22 16 27 0 6 10 32 23 60 42 89 51 128 39
176 -19 79 -24 174 -13 247 8 50 8 84 1 109 -10 39 -75 122 -94 122 -7 0 -45
36 -86 80 -51 56 -82 81 -104 85 -41 8 -79 22 -146 52 -30 14 -73 32 -95 41
-22 9 -46 22 -53 29 -7 7 -18 13 -23 13 -5 0 -9 5 -9 12 0 6 -7 19 -16 29 -25
28 -10 105 30 152 29 34 38 39 77 39 25 0 52 4 60 9 8 5 10 9 6 9 -5 0 -5 5
-2 10 7 12 45 13 63 1z m5402 -21 c0 -5 -4 -10 -9 -10 -6 0 -13 5 -16 10 -3 6
1 10 9 10 9 0 16 -4 16 -10z m320 -100 c0 -5 -18 -10 -40 -10 -22 0 -40 5 -40
10 0 6 18 10 40 10 22 0 40 -4 40 -10z m-6014 -381 c51 -13 58 -29 12 -29 -40
0 -151 -22 -158 -31 -12 -16 -44 -13 -48 4 -11 55 85 83 194 56z m6074 -149
c0 -22 -4 -40 -10 -40 -5 0 -10 18 -10 40 0 22 5 40 10 40 6 0 10 -18 10 -40z
m-6020 -112 c13 -18 30 -37 37 -41 23 -14 3 -28 -30 -22 -45 9 -77 26 -77 42
0 7 4 13 9 13 5 0 13 9 16 20 9 28 17 25 45 -12z m5417 0 c-3 -7 -5 -2 -5 12
0 14 2 19 5 13 2 -7 2 -19 0 -25z m30 0 c-3 -8 -6 -5 -6 6 -1 11 2 17 5 13 3
-3 4 -12 1 -19z m673 -48 l0 -40 -55 0 c-44 0 -53 3 -49 15 4 8 10 15 15 15 5
0 9 11 9 25 0 23 4 25 40 25 l40 0 0 -40z m-3523 -1227 c-3 -10 -5 -4 -5 12 0
17 2 24 5 18 2 -7 2 -21 0 -30z m-22 -201 c-3 -24 -13 -46 -21 -49 -11 -4 -12
-9 -4 -18 12 -14 3 -65 -11 -65 -18 0 -10 68 23 195 13 50 13 50 16 15 2 -19
1 -54 -3 -78z m-1203 49 l32 -28 -25 -30 c-13 -17 -29 -39 -35 -49 -10 -16
-15 -17 -33 -6 -11 6 -23 12 -25 12 -2 0 -4 -6 -3 -12 1 -43 -5 -68 -16 -68
-7 0 -37 -11 -66 -25 -66 -32 -281 -75 -281 -57 0 4 -24 7 -52 7 -29 0 -80 4
-113 8 -139 16 -171 23 -193 45 -12 12 -28 22 -36 22 -8 0 -18 9 -21 20 -5 16
-10 18 -26 9 -25 -13 -57 -3 -61 19 -6 29 18 104 37 118 18 13 54 16 179 14
91 -2 96 -6 96 -103 0 -57 3 -77 10 -67 5 8 10 45 10 83 0 64 1 68 27 78 14 5
32 8 39 5 6 -2 29 -1 50 4 32 7 42 6 59 -10 20 -18 21 -18 48 6 33 28 42 29
92 9 21 -9 46 -13 58 -9 12 4 52 6 88 6 44 -1 72 3 85 13 27 21 40 19 76 -14z
m4428 9 c0 -17 -3 -18 -25 -8 -14 6 -25 15 -25 20 0 4 11 8 25 8 18 0 25 -5
25 -20z m-5410 -47 c0 -26 -16 -47 -29 -39 -6 4 -11 18 -11 32 0 17 5 24 20
24 12 0 20 -7 20 -17z m5780 -614 c0 -5 -4 -9 -10 -9 -5 0 -10 7 -10 16 0 8 5
12 10 9 6 -3 10 -10 10 -16z m-130 -929 c0 -5 19 -10 42 -10 23 0 39 -3 35 -6
-9 -9 -157 7 -157 17 0 5 18 9 40 9 22 0 40 -4 40 -10z m-5455 -460 c3 -5 1
-10 -4 -10 -6 0 -11 5 -11 10 0 6 2 10 4 10 3 0 8 -4 11 -10z m5805 -468 c0
-5 -7 -17 -15 -28 -14 -18 -14 -18 -15 9 0 17 5 27 15 27 8 0 15 -4 15 -8z
m-23 -388 c-3 -3 -12 -4 -19 -1 -8 3 -5 6 6 6 11 1 17 -2 13 -5z m-5109 -295
c-2 -6 -8 -10 -13 -10 -5 0 -11 4 -13 10 -2 6 4 11 13 11 9 0 15 -5 13 -11z
m-18 -42 c0 -7 -18 -21 -40 -31 -21 -10 -51 -31 -64 -45 -77 -79 -71 -76 -149
-73 -153 5 -147 20 43 98 47 19 92 39 101 44 9 5 28 7 43 6 14 -2 31 3 37 10
12 15 29 10 29 -9z m-490 -162 c0 -17 -45 -85 -56 -85 -23 0 -17 50 9 71 20
17 47 25 47 14z m152 -399 c67 -58 78 -69 120 -131 15 -23 87 -101 159 -175
72 -74 136 -147 142 -161 7 -14 10 -51 9 -82 -5 -76 -28 -82 -73 -19 -18 25
-69 83 -113 130 -117 122 -156 164 -156 167 0 2 -35 39 -78 82 -43 44 -91 101
-106 128 -26 44 -27 49 -12 60 9 7 16 22 16 34 0 34 24 25 92 -33z m-73 -212
c17 -14 77 -74 134 -132 56 -58 153 -157 214 -220 88 -89 114 -123 119 -150 5
-24 3 -37 -5 -40 -6 -2 -11 -17 -11 -32 0 -49 -19 -44 -78 21 -31 35 -122 130
-202 212 -174 180 -160 164 -192 207 -20 26 -27 48 -28 90 -4 84 -1 86 49 44z
m-376 -208 c61 -144 70 -192 38 -220 -11 -10 -21 -27 -23 -39 -4 -27 -24 -33
-32 -10 -4 10 -15 34 -26 53 -34 63 -54 143 -53 210 1 83 12 140 27 140 6 0
37 -60 69 -134z m-96 -358 c-3 -8 -6 -5 -6 6 -1 11 2 17 5 13 3 -3 4 -12 1
-19z m169 -88 c8 0 14 -4 14 -9 0 -18 34 -22 47 -6 10 15 29 -1 153 -127 78
-78 160 -165 183 -192 23 -28 68 -77 100 -110 49 -52 57 -65 53 -91 -10 -66
-23 -100 -38 -103 -16 -3 -58 26 -58 39 0 4 -15 23 -32 41 -29 29 -94 107
-375 444 -50 59 -74 101 -72 127 0 9 2 8 6 0 2 -7 11 -13 19 -13z m-16 -150
c32 -36 74 -87 94 -113 20 -26 65 -77 99 -113 34 -36 66 -73 71 -82 5 -9 14
-22 20 -28 6 -6 36 -40 66 -75 30 -35 75 -84 98 -111 45 -48 67 -117 43 -132
-6 -4 -11 -18 -11 -31 0 -13 -5 -27 -10 -30 -11 -7 -80 62 -140 140 -62 81
-170 219 -183 235 -47 58 -140 195 -165 243 -17 31 -35 64 -42 72 -6 8 -9 19
-5 25 4 6 0 19 -8 28 -9 9 -19 29 -22 45 -4 15 -11 30 -16 33 -5 3 -9 11 -9
17 0 7 14 -4 31 -23 17 -19 57 -64 89 -100z m-281 -463 c67 -111 99 -169 107
-189 3 -10 10 -18 15 -18 5 0 9 -5 9 -10 0 -11 127 -204 167 -255 110 -138
245 -314 255 -333 9 -18 9 -27 0 -42 -12 -20 -7 -46 14 -67 18 -19 30 -16 31
7 1 11 -4 20 -13 20 -8 0 -14 7 -14 15 0 20 13 19 26 -3 14 -21 18 -132 5
-132 -5 0 -25 21 -44 48 -20 26 -47 56 -61 66 -14 10 -61 64 -103 120 -43 56
-81 103 -85 104 -4 2 -8 8 -8 14 0 6 -20 38 -44 72 -41 57 -236 374 -236 382
0 2 -13 23 -30 46 -16 22 -30 45 -30 50 0 6 -8 22 -19 36 -28 40 -35 86 -17
102 11 8 14 21 9 38 -10 42 12 18 66 -71z m-77 -204 c10 -9 18 -19 18 -23 0
-11 217 -369 231 -380 3 -3 23 -30 45 -61 21 -31 84 -117 140 -190 55 -74 107
-145 114 -159 7 -14 30 -46 51 -72 38 -46 49 -81 29 -93 -5 -3 -10 -21 -10
-38 l0 -32 -35 39 c-19 22 -35 43 -35 48 0 5 -16 22 -35 39 -19 17 -51 54 -72
82 -20 29 -40 54 -43 57 -20 18 -230 328 -230 340 0 5 -4 10 -8 12 -4 2 -23
30 -41 63 -19 33 -43 75 -53 94 -11 19 -34 57 -52 85 -27 43 -34 64 -39 129
-3 42 -3 77 0 77 4 0 15 -7 25 -17z m264 -1403 c42 -63 88 -132 103 -153 46
-67 47 -69 34 -74 -17 -6 -16 -38 1 -52 18 -15 31 -70 20 -81 -11 -11 -188
239 -233 325 -64 127 -70 143 -58 176 l12 30 23 -28 c12 -15 57 -80 98 -143z
m-126 -90 c0 -5 -4 -10 -10 -10 -5 0 -10 5 -10 10 0 6 5 10 10 10 6 0 10 -4
10 -10z m32 -57 c8 -10 28 -43 44 -73 16 -30 32 -56 37 -58 4 -2 7 -8 7 -13 0
-13 102 -173 112 -177 11 -5 10 -56 -2 -88 -10 -25 -12 -26 -27 -12 -9 9 -21
38 -28 65 -9 35 -17 47 -29 45 -14 -3 -21 9 -17 31 0 4 -3 7 -7 7 -8 0 -16 15
-66 119 -9 19 -16 42 -16 51 0 9 -3 20 -7 24 -11 10 -31 96 -23 96 4 0 14 -8
22 -17z m278 -129 c0 -20 -7 -17 -20 6 -9 16 -8 18 5 14 8 -4 15 -12 15 -20z"/>
<path d="M4910 12622 c0 -10 33 -42 43 -42 4 0 7 11 7 25 0 20 -5 25 -25 25
-14 0 -25 -4 -25 -8z"/>
<path d="M4720 12529 c0 -11 5 -17 10 -14 6 3 10 13 10 21 0 8 -4 14 -10 14
-5 0 -10 -9 -10 -21z"/>
<path d="M4981 12371 c-10 -17 -6 -31 9 -31 4 0 12 11 18 25 9 20 9 25 -3 25
-8 0 -19 -8 -24 -19z"/>
<path d="M6237 9824 c-7 -7 -88 -14 -192 -17 -66 -2 -102 -9 -217 -43 -26 -8
-69 -14 -96 -14 -63 0 -78 -17 -85 -97 -6 -73 1 -83 62 -84 26 -1 57 -4 71 -8
l25 -7 -33 -18 c-60 -31 -92 -66 -92 -101 0 -29 5 -34 43 -49 23 -9 49 -16 58
-16 8 0 19 -4 25 -10 9 -9 105 43 112 61 2 5 16 9 30 9 25 0 29 -5 40 -52 6
-28 23 -64 37 -78 l25 -27 -22 -10 c-17 -7 -38 -6 -80 6 -31 9 -59 18 -61 21
-9 9 -127 -1 -127 -11 0 -12 55 -39 79 -39 11 0 24 -7 29 -16 14 -24 243 -3
301 28 22 12 41 27 41 32 0 6 10 22 23 36 13 14 26 33 30 43 7 20 28 22 45 5
17 -17 15 -48 -2 -48 -8 0 -18 -5 -22 -11 -5 -9 15 -10 77 -5 100 8 119 13
119 30 0 18 -55 59 -111 84 -101 44 -147 61 -199 76 -131 35 -131 35 -25 32
91 -2 105 -5 155 -34 112 -64 149 -82 164 -76 14 5 14 8 0 29 -15 22 -56 46
-129 74 -67 25 -287 57 -380 55 -67 -2 -69 -2 -37 11 32 14 87 27 192 46 30 6
89 17 132 25 96 19 250 23 256 6 2 -7 21 -12 42 -12 20 0 54 -7 74 -15 46 -19
132 -11 141 14 6 16 -27 51 -49 51 -11 0 -144 50 -201 75 -110 49 -130 55
-195 55 -36 0 -69 -3 -73 -6z m-57 -414 c0 -5 -4 -10 -10 -10 -5 0 -10 5 -10
10 0 6 5 10 10 10 6 0 10 -4 10 -10z"/>
<path d="M5380 8523 c-29 -6 -62 -32 -54 -44 3 -5 0 -9 -6 -9 -6 0 -8 -5 -4
-11 3 -6 17 -8 31 -4 24 6 131 -23 184 -49 20 -10 29 -11 42 -1 24 17 21 27
-15 63 -54 51 -107 68 -178 55z"/>
<path d="M5495 8000 c-3 -5 1 -10 9 -10 9 0 16 5 16 10 0 6 -4 10 -9 10 -6 0
-13 -4 -16 -10z"/>
<path d="M5215 1540 c3 -5 8 -10 11 -10 2 0 4 5 4 10 0 6 -5 10 -11 10 -5 0
-7 -4 -4 -10z"/>
<path d="M5237 1515 c-6 -15 26 -49 36 -38 12 12 7 28 -12 40 -15 10 -20 9
-24 -2z"/>
<path d="M5041 824 c0 -11 3 -14 6 -6 3 7 2 16 -1 19 -3 4 -6 -2 -5 -13z"/>
<path d="M4546 14251 c-4 -7 -5 -15 -2 -18 9 -9 19 4 14 18 -4 11 -6 11 -12 0z"/>
<path d="M4560 13890 c0 -20 5 -21 102 -18 89 3 103 5 106 21 3 15 -7 17 -102
17 -100 0 -106 -1 -106 -20z"/>
<path d="M4493 13583 c9 -2 23 -2 30 0 6 3 -1 5 -18 5 -16 0 -22 -2 -12 -5z"/>
<path d="M4683 13413 c-35 -3 -43 -8 -43 -24 0 -15 8 -19 40 -20 22 -1 46 -2
53 -3 14 -1 17 47 2 49 -5 1 -29 0 -52 -2z"/>
<path d="M5740 13256 c0 -8 5 -18 10 -21 6 -3 10 3 10 14 0 12 -4 21 -10 21
-5 0 -10 -6 -10 -14z"/>
<path d="M5280 13047 c0 -14 -11 -17 -57 -17 -68 0 -62 -14 17 -34 47 -12 57
-12 87 2 38 18 43 32 11 32 -12 0 -30 7 -40 17 -17 15 -18 15 -18 0z"/>
<path d="M5728 12979 c-26 -14 -22 -29 7 -29 18 0 25 5 25 20 0 22 -7 24 -32
9z"/>
<path d="M5477 12921 c-13 -61 -9 -131 8 -131 12 0 15 12 14 53 -1 28 -4 66
-8 82 l-7 30 -7 -34z"/>
<path d="M5810 12805 c-11 -13 -8 -15 19 -15 29 0 31 2 17 15 -8 8 -17 15 -19
15 -3 0 -10 -7 -17 -15z"/>
<path d="M5538 12793 c12 -2 32 -2 45 0 12 2 2 4 -23 4 -25 0 -35 -2 -22 -4z"/>
<path d="M5180 12750 c0 -22 5 -40 10 -40 6 0 10 18 10 40 0 22 -4 40 -10 40
-5 0 -10 -18 -10 -40z"/>
<path d="M5360 12775 c0 -8 4 -15 9 -15 5 0 14 7 21 15 10 13 9 15 -9 15 -12
0 -21 -6 -21 -15z"/>
<path d="M7740 12670 c0 -22 5 -40 10 -40 6 0 10 7 10 15 0 12 20 15 118 15
l117 1 -24 19 c-17 15 -38 20 -77 20 -30 0 -54 -4 -54 -10 0 -5 -18 -10 -40
-10 -29 0 -40 4 -40 15 0 8 -4 15 -10 15 -5 0 -10 -18 -10 -40z"/>
<path d="M7570 12666 c0 -2 7 -9 15 -16 12 -10 15 -10 15 4 0 9 -7 16 -15 16
-8 0 -15 -2 -15 -4z"/>
<path d="M8826 12645 c-4 -10 1 -15 14 -15 13 0 18 5 14 15 -4 8 -10 15 -14
15 -4 0 -10 -7 -14 -15z"/>
<path d="M5505 12640 c-3 -5 -1 -10 4 -10 6 0 11 5 11 10 0 6 -2 10 -4 10 -3
0 -8 -4 -11 -10z"/>
<path d="M3240 12620 c0 -5 6 -10 14 -10 8 0 18 5 21 10 3 6 -3 10 -14 10 -12
0 -21 -4 -21 -10z"/>
<path d="M3523 12510 c0 -25 2 -35 4 -22 2 12 2 32 0 45 -2 12 -4 2 -4 -23z"/>
<path d="M6210 12535 c7 -8 16 -15 21 -15 5 0 9 7 9 15 0 9 -9 15 -21 15 -18
0 -19 -2 -9 -15z"/>
<path d="M5420 12480 c0 -5 5 -10 10 -10 6 0 10 5 10 10 0 6 -4 10 -10 10 -5
0 -10 -4 -10 -10z"/>
<path d="M5486 12459 c-15 -9 -16 -13 -5 -20 22 -14 36 -10 42 11 6 22 -8 25
-37 9z"/>
<path d="M9162 12458 c7 -19 38 -22 38 -4 0 10 -9 16 -21 16 -12 0 -19 -5 -17
-12z"/>
<path d="M9410 12461 c0 -5 7 -14 15 -21 13 -10 15 -9 15 9 0 12 -6 21 -15 21
-8 0 -15 -4 -15 -9z"/>
<path d="M3378 12452 c-22 -4 -24 -49 -3 -76 21 -28 45 -13 45 27 0 38 -15 56
-42 49z"/>
<path d="M9480 12325 c-7 -8 -19 -15 -27 -15 -26 0 -8 -22 28 -34 32 -11 37
-10 52 10 15 20 15 23 -2 38 -22 20 -35 20 -51 1z"/>
<path d="M1210 12270 c0 -22 5 -40 10 -40 6 0 10 18 10 40 0 22 -4 40 -10 40
-5 0 -10 -18 -10 -40z"/>
<path d="M1743 12270 c0 -25 2 -35 4 -22 2 12 2 32 0 45 -2 12 -4 2 -4 -23z"/>
<path d="M2329 12185 c-6 -58 -6 -56 6 -47 6 4 8 27 5 52 l-6 45 -5 -50z"/>
<path d="M1660 12195 c0 -8 5 -15 10 -15 6 0 10 7 10 15 0 8 -4 15 -10 15 -5
0 -10 -7 -10 -15z"/>
<path d="M2525 12200 c-3 -5 -4 -10 -1 -10 2 0 11 -3 20 -6 11 -4 16 -1 16 10
0 18 -25 22 -35 6z"/>
<path d="M3390 12126 c0 -8 5 -18 10 -21 6 -3 10 1 10 9 0 8 -4 18 -10 21 -5
3 -10 -1 -10 -9z"/>
<path d="M532 12072 c-19 -3 -21 -6 -11 -18 6 -8 17 -14 24 -14 8 0 15 -4 17
-10 2 -5 9 -6 17 -1 20 13 -17 47 -47 43z"/>
<path d="M3992 11826 c7 -8 15 -12 17 -11 5 6 -10 25 -20 25 -5 0 -4 -6 3 -14z"/>
<path d="M3680 11450 c0 -5 7 -10 15 -10 8 0 15 5 15 10 0 6 -7 10 -15 10 -8
0 -15 -4 -15 -10z"/>
<path d="M7618 11403 c6 -2 18 -2 25 0 6 3 1 5 -13 5 -14 0 -19 -2 -12 -5z"/>
<path d="M7680 11385 c0 -8 9 -15 20 -15 24 0 27 15 4 24 -22 9 -24 8 -24 -9z"/>
<path d="M0 11225 c0 -23 3 -25 36 -21 42 5 48 10 41 29 -3 8 -21 14 -41 15
-32 1 -36 -1 -36 -23z"/>
<path d="M2240 10700 c0 -5 5 -10 10 -10 6 0 10 5 10 10 0 6 -4 10 -10 10 -5
0 -10 -4 -10 -10z"/>
<path d="M2218 10473 c-16 -2 -28 -11 -28 -18 0 -59 -55 -86 -80 -40 -13 25
-30 34 -30 16 0 -5 -3 -16 -6 -25 -4 -11 0 -16 12 -16 9 0 14 -3 10 -7 -4 -4
-27 -6 -51 -4 -44 2 -45 2 -45 -28 0 -17 -5 -31 -11 -31 -6 0 -4 -6 3 -14 10
-9 53 -16 131 -21 64 -4 117 -11 117 -15 0 -11 103 -19 115 -10 6 5 25 10 44
12 51 5 60 28 33 83 -12 25 -22 62 -23 83 0 20 -3 31 -6 25 -5 -14 -60 -17
-88 -7 -13 5 -14 8 -3 15 13 9 -41 10 -94 2z"/>
<path d="M9200 10459 c0 -5 5 -7 10 -4 6 3 10 8 10 11 0 2 -4 4 -10 4 -5 0
-10 -5 -10 -11z"/>
<path d="M2480 10299 c0 -5 5 -7 10 -4 6 3 10 8 10 11 0 2 -4 4 -10 4 -5 0
-10 -5 -10 -11z"/>
<path d="M2220 10240 c-13 -8 -12 -10 3 -10 9 0 17 5 17 10 0 12 -1 12 -20 0z"/>
<path d="M2059 10204 c-9 -12 -8 -23 7 -54 10 -22 22 -40 25 -40 4 0 17 8 29
18 18 14 21 25 17 44 -9 33 -60 54 -78 32z"/>
<path d="M2251 10154 c-12 -14 -10 -15 10 -12 12 1 24 9 27 16 5 17 -20 14
-37 -4z"/>
<path d="M9276 9985 c3 -8 -1 -24 -10 -37 -22 -31 -20 -38 9 -38 22 0 25 4 25
39 0 25 -5 41 -14 44 -10 4 -13 1 -10 -8z"/>
<path d="M9880 9975 c7 -8 19 -15 26 -15 8 0 14 7 14 15 0 10 -10 15 -26 15
-22 0 -25 -2 -14 -15z"/>
<path d="M10097 9853 c-32 -8 -12 -28 24 -25 49 5 54 14 14 24 -11 3 -28 3
-38 1z"/>
<path d="M10480 9820 c0 -13 11 -13 30 0 12 8 11 10 -7 10 -13 0 -23 -4 -23
-10z"/>
<path d="M10560 9680 c0 -16 4 -30 9 -30 12 0 24 37 16 50 -12 20 -25 10 -25
-20z"/>
<path d="M7291 8601 c-25 -25 -18 -51 14 -51 25 0 41 15 47 45 4 28 -35 32
-61 6z"/>
<path d="M9800 8320 c0 -5 5 -10 11 -10 5 0 7 5 4 10 -3 6 -8 10 -11 10 -2 0
-4 -4 -4 -10z"/>
<path d="M10120 7925 c0 -8 -6 -15 -12 -15 -14 -1 29 -40 43 -40 5 0 9 16 9
35 0 28 -4 35 -20 35 -11 0 -20 -7 -20 -15z"/>
<path d="M6978 7128 c-9 -22 16 -56 27 -38 4 7 3 15 -2 19 -6 3 -12 13 -15 20
-4 13 -5 12 -10 -1z"/>
<path d="M10545 7035 c-17 -13 -17 -17 -5 -29 11 -10 22 -11 38 -5 26 10 29
34 6 43 -19 7 -15 8 -39 -9z"/>
<path d="M10108 6443 c6 -2 18 -2 25 0 6 3 1 5 -13 5 -14 0 -19 -2 -12 -5z"/>
<path d="M10160 6263 c0 -5 -25 -15 -55 -22 -30 -7 -55 -17 -55 -22 0 -15 72
-14 102 2 12 7 27 2 54 -16 24 -16 51 -25 75 -25 35 0 39 3 39 25 0 18 -5 25
-20 25 -10 0 -23 7 -28 16 -10 19 -112 34 -112 17z"/>
<path d="M10280 6065 c-8 -10 -17 -12 -29 -6 -11 6 -23 4 -36 -5 -19 -14 -19
-15 3 -20 12 -4 22 -9 22 -13 0 -3 18 -7 40 -9 30 -2 40 1 40 13 0 8 5 15 10
15 16 0 11 27 -6 34 -23 9 -30 8 -44 -9z"/>
<path d="M5288 5753 c7 -3 16 -2 19 1 4 3 -2 6 -13 5 -11 0 -14 -3 -6 -6z"/>
<path d="M5658 5393 c7 -3 16 -2 19 1 4 3 -2 6 -13 5 -11 0 -14 -3 -6 -6z"/>
<path d="M10780 5298 c-7 -16 -20 -28 -27 -28 -20 0 -12 -34 10 -38 19 -4 40
39 34 72 -3 19 -4 19 -17 -6z"/>
<path d="M5817 5249 c7 -7 15 -10 18 -7 3 3 -2 9 -12 12 -14 6 -15 5 -6 -5z"/>
<path d="M4922 4568 c-8 -8 -8 -17 -1 -30 14 -26 39 -23 39 6 0 27 -22 40 -38
24z"/>
<path d="M4511 4534 c0 -11 3 -14 6 -6 3 7 2 16 -1 19 -3 4 -6 -2 -5 -13z"/>
<path d="M4845 4500 c-3 -5 -1 -10 4 -10 6 0 11 5 11 10 0 6 -2 10 -4 10 -3 0
-8 -4 -11 -10z"/>
<path d="M4715 4377 c-23 -26 -26 -37 -11 -37 9 0 16 7 16 15 0 8 5 15 10 15
6 0 10 5 10 10 0 13 -13 12 -25 -3z"/>
<path d="M4580 4218 c-11 -12 -20 -25 -20 -30 0 -4 -9 -8 -19 -8 -12 0 -29
-16 -45 -44 -32 -54 -33 -72 -4 -48 39 31 68 65 68 78 0 8 6 14 13 14 8 0 26
14 40 30 25 27 25 30 7 30 -10 0 -28 -10 -40 -22z"/>
<path d="M0 315 l0 -315 403 1 c232 0 393 4 381 9 -12 4 -24 15 -27 23 -4 10
-27 18 -71 22 -62 7 -79 16 -56 30 5 3 10 1 10 -4 0 -6 5 -11 10 -11 6 0 7 7
2 17 -35 70 -48 91 -73 114 l-27 26 -7 -35 -7 -36 -19 24 c-10 14 -19 29 -19
34 0 11 -40 46 -52 46 -16 0 -8 30 12 42 42 26 23 38 -60 38 -78 0 -160 21
-160 41 0 5 -11 9 -25 9 -22 0 -25 4 -25 40 0 31 4 40 18 40 25 0 -21 23 -80
39 -28 8 -48 19 -48 27 0 8 -6 14 -13 14 -8 0 -20 18 -27 40 -7 22 -19 40 -27
40 -11 0 -13 -58 -13 -315z"/>
<path d="M780 71 c-15 -5 2 -7 46 -7 40 1 67 4 60 8 -14 9 -72 9 -106 -1z"/>
</g>
</svg>
