<?xml version="1.0" standalone="no"?>
<svg xmlns:xlink="http://www.w3.org/1999/xlink" id="wave" style="transform:rotate(0deg); transition: 0.3s" viewBox="0 0 1440 390" version="1.1" xmlns="http://www.w3.org/2000/svg"><defs><linearGradient id="sw-gradient-0" x1="0" x2="0" y1="1" y2="0"><stop stop-color="rgba(99.946, 0, 218.892, 1)" offset="0%"/><stop stop-color="rgba(0, 0, 0, 1)" offset="100%"/></linearGradient></defs><path style="transform:translate(0, 0px); opacity:1" fill="url(#sw-gradient-0)" d="M0,0L24,6.5C48,13,96,26,144,78C192,130,240,221,288,240.5C336,260,384,208,432,214.5C480,221,528,286,576,299C624,312,672,273,720,227.5C768,182,816,130,864,136.5C912,143,960,208,1008,247C1056,286,1104,299,1152,305.5C1200,312,1248,312,1296,266.5C1344,221,1392,130,1440,130C1488,130,1536,221,1584,221C1632,221,1680,130,1728,130C1776,130,1824,221,1872,266.5C1920,312,1968,312,2016,273C2064,234,2112,156,2160,110.5C2208,65,2256,52,2304,84.5C2352,117,2400,195,2448,214.5C2496,234,2544,195,2592,208C2640,221,2688,286,2736,273C2784,260,2832,169,2880,169C2928,169,2976,260,3024,279.5C3072,299,3120,247,3168,201.5C3216,156,3264,117,3312,84.5C3360,52,3408,26,3432,13L3456,0L3456,390L3432,390C3408,390,3360,390,3312,390C3264,390,3216,390,3168,390C3120,390,3072,390,3024,390C2976,390,2928,390,2880,390C2832,390,2784,390,2736,390C2688,390,2640,390,2592,390C2544,390,2496,390,2448,390C2400,390,2352,390,2304,390C2256,390,2208,390,2160,390C2112,390,2064,390,2016,390C1968,390,1920,390,1872,390C1824,390,1776,390,1728,390C1680,390,1632,390,1584,390C1536,390,1488,390,1440,390C1392,390,1344,390,1296,390C1248,390,1200,390,1152,390C1104,390,1056,390,1008,390C960,390,912,390,864,390C816,390,768,390,720,390C672,390,624,390,576,390C528,390,480,390,432,390C384,390,336,390,288,390C240,390,192,390,144,390C96,390,48,390,24,390L0,390Z"/></svg>