<?xml version="1.0" encoding="utf-8"?>
<!-- Generator: Adobe Illustrator 27.5.0, SVG Export Plug-In . SVG Version: 6.00 Build 0)  -->
<svg version="1.1" xmlns="http://www.w3.org/2000/svg" xmlns:xlink="http://www.w3.org/1999/xlink" x="0px" y="0px"
	 viewBox="0 0 500 500" style="enable-background:new 0 0 500 500;" xml:space="preserve">
<g id="Background_Simple">
	<g>
		<path style="fill:#92E3A9;" d="M424.716,135.306c0,0-16.865-57.56-119.045-93.867C203.49,5.131,112.222,38.782,91.389,81.287
			c-20.833,42.506,0.992,65.53-12.896,101.837C64.604,219.432-6.824,265.48,21.946,321.269
			c28.769,55.789,163.687,71.729,272.812,60.217C403.883,369.974,489.199,242.456,424.716,135.306z"/>
		<path style="opacity:0.7;fill:#FFFFFF;" d="M424.716,135.306c0,0-16.865-57.56-119.045-93.867
			C203.49,5.131,112.222,38.782,91.389,81.287c-20.833,42.506,0.992,65.53-12.896,101.837
			C64.604,219.432-6.824,265.48,21.946,321.269c28.769,55.789,163.687,71.729,272.812,60.217
			C403.883,369.974,489.199,242.456,424.716,135.306z"/>
	</g>
</g>
<g id="Plant">
	<g>
		<g>
			<path style="fill:#263238;" d="M22.37,409.328c1.813,0.792,6.247,0.692,6.25,0.692c0.046-0.001-0.953-2.902-1.037-3.078
				c-0.973-2.035-4.049-5.396-6.553-5.057c-1.803,0.244-2.806,2.049-2.399,3.746C19.047,407.365,20.826,408.653,22.37,409.328z"/>
			<path style="fill:#263238;" d="M23.9,422.17c1.881,0.274,5.837-0.873,6.152-0.966c0.625,2.215,1.445,4.438,2.4,6.641
				c0.544,1.26,1.132,2.512,1.736,3.761c-0.361-0.529-0.688-0.999-0.74-1.06c-1.476-1.706-5.331-4.134-7.655-3.147
				c-1.676,0.711-2.166,2.717-1.325,4.247c0.858,1.563,2.915,2.336,4.582,2.578c1.692,0.247,5.085-0.664,5.98-0.917
				c0.237,0.477,0.468,0.955,0.707,1.43c1.146,2.282,2.299,4.553,3.362,6.816c0.375,0.797,0.715,1.596,1.058,2.395
				c-0.321-0.47-0.596-0.862-0.644-0.918c-1.476-1.705-5.33-4.134-7.655-3.147c-1.675,0.711-2.166,2.717-1.325,4.247
				c0.859,1.563,2.915,2.336,4.583,2.578c1.614,0.235,4.754-0.577,5.818-0.872c0.327,0.828,0.656,1.657,0.935,2.474
				c0.178,0.562,0.389,1.091,0.536,1.665c0.158,0.566,0.314,1.126,0.469,1.681c0.259,1.079,0.533,2.191,0.759,3.25
				c0.163,0.736,0.305,1.439,0.449,2.148c-0.364-0.798-1.11-2.345-1.187-2.468c-1.2-1.91-4.642-4.893-7.09-4.27
				c-1.763,0.449-2.552,2.357-1.952,3.997c0.612,1.674,2.527,2.75,4.138,3.243c1.774,0.542,5.701,0.047,6.192-0.018
				c0.235,1.174,0.453,2.317,0.641,3.4c0.141,0.798,0.269,1.565,0.387,2.302h1.573c-0.148-0.821-0.31-1.679-0.488-2.577
				c-0.234-1.192-0.508-2.462-0.802-3.763c0.295-0.117,1.97-0.795,3.454-1.624c1.293,1.4,4.606,3.039,5.035,3.247
				c-0.451,1.109-0.9,2.183-1.34,3.189c-0.23,0.53-0.454,1.03-0.677,1.528h1.663c0.131-0.313,0.26-0.62,0.393-0.946
				c0.463-1.124,0.935-2.334,1.408-3.581c0.475,0.099,4.363,0.889,6.175,0.48c1.643-0.372,3.634-1.301,4.369-2.926
				c0.72-1.59,0.076-3.552-1.65-4.131c-2.394-0.805-6.049,1.915-7.388,3.73c-0.079,0.107-0.807,1.365-1.252,2.165
				c0.19-0.51,0.381-1.004,0.571-1.532c0.383-1.042,0.733-2.092,1.114-3.221c0.165-0.552,0.332-1.109,0.5-1.672
				c0.179-0.555,0.297-1.163,0.45-1.75c0.326-1.368,0.589-2.769,0.823-4.186c0.913,0.332,4.172,1.466,5.861,1.347
				c1.68-0.118,3.788-0.735,4.761-2.23c0.953-1.463,0.613-3.5-1.005-4.334c-2.245-1.158-6.27,0.977-7.869,2.568
				c-0.1,0.099-1.118,1.37-1.664,2.078c0.134-0.853,0.272-1.704,0.379-2.572c0.311-2.505,0.547-5.049,0.795-7.587
				c0.075-0.777,0.16-1.551,0.241-2.326c0.324,0.122,4.168,1.553,6.059,1.42c1.681-0.117,3.789-0.735,4.762-2.23
				c0.953-1.463,0.613-3.499-1.005-4.333c-2.245-1.158-6.27,0.977-7.868,2.568c-0.12,0.12-1.584,1.95-1.933,2.434
				c0.18-1.707,0.376-3.405,0.637-5.072c0.356-2.3,0.833-4.538,1.456-6.671c0.151,0.057,4.156,1.569,6.093,1.433
				c1.681-0.118,3.789-0.736,4.762-2.23c0.953-1.463,0.613-3.499-1.004-4.334c-2.245-1.158-6.27,0.977-7.869,2.568
				c-0.125,0.125-1.699,2.095-1.959,2.473c0.038-0.127,0.062-0.262,0.101-0.388c0.693-2.269,1.65-4.38,2.643-6.313
				c0.575-1.124,1.187-2.167,1.805-3.167c0.718,0.358,4.013,1.958,5.77,2.029c1.683,0.067,3.847-0.315,4.978-1.694
				c1.108-1.349,0.994-3.411-0.522-4.418c-2.104-1.397-6.339,0.282-8.103,1.688c-0.096,0.076-0.985,0.962-1.623,1.615
				c0.286-0.448,0.572-0.915,0.855-1.337c1.057-1.591,2.122-2.983,3.076-4.209c0.548-0.692,1.057-1.308,1.54-1.878
				c0.887-0.015,4.461-0.124,6.024-0.858c1.525-0.716,3.269-2.052,3.638-3.797c0.361-1.708-0.69-3.486-2.5-3.68
				c-2.511-0.271-5.496,3.171-6.414,5.232c-0.079,0.178-0.999,3.106-0.953,3.105c0,0,0.043,0,0.054-0.001
				c-0.476,0.54-0.979,1.124-1.516,1.773c-0.983,1.207-2.082,2.579-3.177,4.154c-1.099,1.571-2.248,3.308-3.294,5.247
				c-1.051,1.943-2.056,4.04-2.813,6.334c-0.009,0.026-0.014,0.054-0.023,0.08c0.013-0.74-0.02-2.81-0.04-2.969
				c-0.29-2.237-2.165-6.389-4.649-6.849c-1.79-0.33-3.305,1.071-3.448,2.812c-0.145,1.777,1.143,3.556,2.4,4.679
				c1.417,1.266,5.35,2.491,5.664,2.588c-0.701,2.192-1.242,4.498-1.662,6.862c-0.241,1.352-0.442,2.72-0.626,4.095
				c-0.009-0.64-0.022-1.212-0.033-1.292c-0.29-2.237-2.165-6.388-4.649-6.848c-1.79-0.331-3.305,1.072-3.448,2.811
				c-0.146,1.777,1.143,3.556,2.399,4.679c1.275,1.139,4.608,2.251,5.493,2.534c-0.065,0.528-0.136,1.055-0.199,1.583
				c-0.303,2.535-0.594,5.066-0.956,7.54c-0.127,0.872-0.284,1.726-0.438,2.581c-0.009-0.568-0.021-1.047-0.031-1.12
				c-0.29-2.237-2.165-6.389-4.648-6.848c-1.79-0.33-3.306,1.071-3.448,2.812c-0.146,1.777,1.144,3.556,2.4,4.678
				c1.216,1.087,4.283,2.141,5.334,2.482c-0.184,0.871-0.367,1.743-0.585,2.579c-0.162,0.567-0.278,1.124-0.472,1.685
				c-0.181,0.559-0.359,1.113-0.536,1.661c-0.38,1.043-0.764,2.122-1.16,3.13c-0.27,0.703-0.541,1.369-0.81,2.039
				c0.136-0.866,0.368-2.568,0.372-2.712c0.034-1.498-0.498-3.934-1.557-5.647c0.007-0.221-0.006-0.442-0.041-0.661
				c-0.277-1.724-1.897-3.004-3.655-2.536c-2.441,0.65-3.989,4.935-4.105,7.187c-0.007,0.133,0.08,1.583,0.15,2.497
				c-0.123-0.531-0.236-1.048-0.369-1.593c-0.256-1.079-0.544-2.149-0.848-3.302c-0.166-0.551-0.335-1.107-0.505-1.67
				c-0.157-0.561-0.394-1.134-0.59-1.707c-0.483-1.32-1.036-2.634-1.623-3.946c0.945-0.226,4.289-1.079,5.631-2.109
				c1.337-1.025,2.754-2.704,2.742-4.486c-0.013-1.746-1.419-3.257-3.229-3.061c-2.511,0.273-4.691,4.273-5.147,6.482
				c-0.028,0.138-0.177,1.76-0.242,2.652c-0.359-0.785-0.713-1.571-1.103-2.355c-1.122-2.261-2.328-4.514-3.522-6.767
				c-0.366-0.69-0.722-1.382-1.082-2.073c0.337-0.077,4.334-1.005,5.838-2.158c1.336-1.025,2.754-2.704,2.741-4.487
				c-0.012-1.746-1.419-3.257-3.228-3.06c-2.512,0.273-4.691,4.273-5.147,6.482c-0.034,0.166-0.245,2.501-0.269,3.097
				c-0.791-1.522-1.565-3.047-2.267-4.581c-0.972-2.115-1.808-4.244-2.466-6.367c0.157-0.036,4.332-0.985,5.873-2.167
				c1.337-1.025,2.755-2.703,2.742-4.487c-0.012-1.746-1.419-3.257-3.229-3.06c-2.511,0.273-4.691,4.273-5.146,6.483
				c-0.036,0.173-0.261,2.685-0.269,3.142c-0.039-0.126-0.093-0.252-0.131-0.379c-0.673-2.276-1.04-4.564-1.278-6.724
				c-0.141-1.254-0.205-2.461-0.242-3.637c0.796-0.097,4.428-0.581,5.931-1.491c1.442-0.873,3.035-2.385,3.218-4.158
				c0.179-1.737-1.053-3.394-2.873-3.397c-2.526-0.005-5.132,3.733-5.827,5.878c-0.038,0.117-0.291,1.345-0.463,2.243
				c-0.008-0.531-0.027-1.079-0.025-1.587c0.004-1.91,0.124-3.659,0.244-5.207c0.075-0.88,0.161-1.674,0.249-2.416
				c0.731-0.503,3.652-2.565,4.551-4.039c0.877-1.439,1.594-3.515,0.94-5.173c-0.641-1.624-2.499-2.526-4.115-1.691
				c-2.244,1.16-2.835,5.678-2.464,7.902c0.033,0.192,0.88,3.141,0.919,3.116c0,0,0.036-0.024,0.044-0.03
				c-0.099,0.712-0.196,1.477-0.286,2.315c-0.154,1.549-0.313,3.3-0.358,5.217c-0.05,1.916-0.05,4,0.147,6.194
				c0.196,2.199,0.513,4.504,1.148,6.835c0.007,0.027,0.018,0.053,0.025,0.079c-0.397-0.624-1.567-2.333-1.672-2.454
				c-1.476-1.706-5.33-4.134-7.655-3.147c-1.675,0.712-2.166,2.717-1.325,4.247C20.177,421.155,22.233,421.927,23.9,422.17z"/>
			<path style="fill:#263238;" d="M67.217,410.302c0.039,0.025,0.806-2.947,0.834-3.139c0.311-2.234-0.401-6.734-2.676-7.833
				c-1.638-0.792-3.47,0.161-4.067,1.802c-0.61,1.675,0.163,3.732,1.079,5.146C63.461,407.938,67.214,410.301,67.217,410.302z"/>
		</g>
	</g>
</g>
<g id="Shadow">
	<ellipse style="fill:#263238;" cx="201.141" cy="456.496" rx="178.131" ry="17.856"/>
</g>
<g id="Clouds">
	<g>
		<path style="fill:none;stroke:#B2B2B2;stroke-linecap:round;stroke-linejoin:round;stroke-miterlimit:10;" d="M272.577,96.901
			c-0.162-0.499-0.33-1.001-0.511-1.504c-6.674-18.56-37.724-19.84-37.725,2.97c0,4.393-10.544,0-14.497,5.711
			c-3.954,5.711,0.439,9.226-4.832,10.983s-5.711-2.636-12.301-2.197c-6.59,0.439-5.711,6.59-7.908,8.347
			c-2.197,1.757-2.197,0.879-7.029,1.318c-4.832,0.439-5.711,3.954-5.711,3.954h115.54c0,0,4.393-13.179-3.514-18.012
			c-7.908-4.832-7.908,1.757-14.059-0.879C274.949,105.414,273.998,101.281,272.577,96.901z"/>
		<path style="fill:none;stroke:#B2B2B2;stroke-linecap:round;stroke-linejoin:round;stroke-miterlimit:10;" d="M276.572,121.676
			c0,0,2.393-7.398-3.481-12.837c-5.875-5.439-11.967-2.393-13.708,0c-1.741,2.393-1.741,6.963-4.569,7.398
			c-2.829,0.435-2.176-4.787-8.268-3.481c-6.092,1.305-3.699,7.398-6.528,8.703c-2.828,1.306-2.828-3.481-6.745-1.958
			c-3.916,1.523-3.699,4.352-3.699,4.352"/>
		<path style="fill:none;stroke:#B2B2B2;stroke-linecap:round;stroke-linejoin:round;stroke-miterlimit:10;" d="M245.321,106.894
			c0,0-4.845-3.876-11.144-0.969s-3.392,8.963-6.299,10.417c-2.907,1.453-4.361-0.242-7.994,1.453
			c-3.634,1.696-3.392,4.118-3.392,4.118"/>
	</g>
	<g>
		<path style="fill:none;stroke:#B2B2B2;stroke-linecap:round;stroke-linejoin:round;stroke-miterlimit:10;" d="M94.175,52.432
			c-0.088-0.271-0.179-0.543-0.277-0.816c-3.621-10.07-20.469-10.765-20.469,1.612c0,2.384-5.721,0-7.866,3.099
			c-2.145,3.099,0.238,5.006-2.622,5.959c-2.86,0.954-3.099-1.43-6.674-1.192c-3.576,0.238-3.099,3.576-4.291,4.529
			c-1.192,0.953-1.192,0.477-3.814,0.715c-2.622,0.238-3.099,2.145-3.099,2.145h62.691c0,0,2.384-7.151-1.907-9.773
			c-4.291-2.622-4.291,0.953-7.628-0.477C95.463,57.051,94.946,54.808,94.175,52.432z"/>
		<path style="fill:none;stroke:#B2B2B2;stroke-linecap:round;stroke-linejoin:round;stroke-miterlimit:10;" d="M96.343,65.875
			c0,0,1.299-4.014-1.889-6.966c-3.188-2.951-6.493-1.299-7.438,0c-0.944,1.299-0.944,3.778-2.479,4.014
			c-1.535,0.236-1.181-2.597-4.486-1.889c-3.306,0.708-2.007,4.014-3.542,4.722c-1.535,0.709-1.535-1.889-3.66-1.063
			c-2.125,0.826-2.007,2.361-2.007,2.361"/>
		<path style="fill:none;stroke:#B2B2B2;stroke-linecap:round;stroke-linejoin:round;stroke-miterlimit:10;" d="M79.386,57.854
			c0,0-2.629-2.103-6.047-0.526c-3.418,1.577-1.84,4.863-3.418,5.652c-1.577,0.789-2.366-0.131-4.338,0.789
			c-1.972,0.92-1.84,2.235-1.84,2.235"/>
	</g>
</g>
<g id="Trees">
	<g>
		<path style="fill:#92E3A9;" d="M197.508,211.426c-0.018-0.409-0.298-0.712-0.602-0.647l-17.167,3.676
			c-0.605,0.13-0.849-1.001-0.285-1.32l17.291-9.762c0.206-0.116,0.333-0.391,0.316-0.688c-0.717-12.473-1.829-26.152-3.28-40.108
			c-0.041-0.393-0.322-0.662-0.614-0.587l-15.191,3.892c-0.553,0.142-0.856-0.828-0.391-1.251l14.657-13.315
			c0.166-0.151,0.252-0.416,0.221-0.68c-0.787-6.738-1.648-13.477-2.577-20.117l-1.196-6.638c-0.074-0.413-0.408-0.64-0.703-0.478
			l-8.842,4.875c-0.525,0.289-0.967-0.593-0.565-1.128l8.802-11.727c0.125-0.166,0.178-0.408,0.141-0.638
			c-1.762-10.921-3.706-21.311-5.803-30.662c-0.098-0.436-0.48-0.625-0.77-0.386l-11.394,9.342
			c-0.482,0.395-1.024-0.377-0.695-0.991l10.024-18.698c0.099-0.184,0.123-0.425,0.067-0.639c-1.794-6.76-3.679-12.703-5.639-17.557
			c-0.128-0.318-0.419-0.445-0.667-0.3l-7.905,4.634c-0.407,0.239-0.836-0.27-0.705-0.837l2.482-9.971
			c0.041-0.179,0.219-0.911,0.416-1.549l0.647-2.571c-1.835-2.256-3.714-3.491-5.63-3.491c-2.048,0-4.056,1.395-6.011,3.959
			l2.947,13.623c0.131,0.566-0.298,1.075-0.705,0.837l-7.112-4.169c-0.25-0.146-0.541-0.017-0.669,0.304
			c-2.01,5.063-3.941,11.265-5.775,18.318c-0.055,0.213-0.03,0.45,0.068,0.633l9.368,17.473c0.329,0.614-0.212,1.387-0.695,0.991
			L142.8,84.416c-0.291-0.239-0.674-0.049-0.771,0.388c-2.108,9.482-4.06,20.008-5.825,31.058c-0.037,0.23,0.016,0.47,0.141,0.637
			l7.996,10.653c0.401,0.535-0.041,1.417-0.566,1.128l-8.156-4.497c-0.303-0.167-0.646,0.075-0.71,0.504
			c-1.316,8.894-2.51,18.031-3.567,27.155c-0.031,0.264,0.055,0.528,0.221,0.679l13.772,12.511c0.466,0.423,0.163,1.392-0.391,1.251
			l-14.238-3.648c-0.293-0.075-0.573,0.194-0.614,0.587c-1.459,14.072-2.573,27.856-3.285,40.4
			c-0.017,0.297,0.111,0.571,0.316,0.687l16.343,9.226c0.565,0.319,0.321,1.449-0.285,1.32l-16.197-3.468
			c-0.304-0.065-0.584,0.239-0.602,0.648c-0.317,7.214-0.483,13.896-0.483,19.83c0,3.765,0.069,7.377,0.198,10.848
			c0.011,0.29,0.157,0.537,0.365,0.624l17.079,7.139c0.548,0.229,0.452,1.299-0.121,1.35l-16.154,1.435
			c-0.296,0.026-0.517,0.383-0.483,0.776c1.001,11.683,2.821,21.424,5.294,29.404c0.104,0.335,0.384,0.502,0.642,0.391l9.917-4.285
			c0.51-0.221,0.906,0.609,0.539,1.131l-7.665,10.893c-0.16,0.227-0.187,0.573-0.066,0.839c6.587,14.5,16.023,20.772,26.504,20.772
			c10.274,0,19.542-6.03,26.109-19.926c0.126-0.267,0.101-0.619-0.061-0.849l-8.253-11.728c-0.367-0.522,0.029-1.352,0.539-1.131
			l10.78,4.658c0.257,0.111,0.537-0.054,0.641-0.387c2.527-8.03,4.385-17.865,5.404-29.693c0.034-0.393-0.187-0.75-0.483-0.776
			l-17.125-1.521c-0.573-0.051-0.669-1.121-0.121-1.35l17.86-7.465c0.17-0.071,0.3-0.253,0.346-0.482l0.254-1.268
			c0.01-0.05,0.016-0.1,0.017-0.152c0.093-2.979,0.144-6.055,0.144-9.245C198,225.473,197.831,218.72,197.508,211.426z"/>
		<path style="opacity:0.4;fill:#FFFFFF;" d="M197.508,211.426c-0.018-0.409-0.298-0.712-0.602-0.647l-17.167,3.676
			c-0.605,0.13-0.849-1.001-0.285-1.32l17.291-9.762c0.206-0.116,0.333-0.391,0.316-0.688c-0.717-12.473-1.829-26.152-3.28-40.108
			c-0.041-0.393-0.322-0.662-0.614-0.587l-15.191,3.892c-0.553,0.142-0.856-0.828-0.391-1.251l14.657-13.315
			c0.166-0.151,0.252-0.416,0.221-0.68c-0.787-6.738-1.648-13.477-2.577-20.117l-1.196-6.638c-0.074-0.413-0.408-0.64-0.703-0.478
			l-8.842,4.875c-0.525,0.289-0.967-0.593-0.565-1.128l8.802-11.727c0.125-0.166,0.178-0.408,0.141-0.638
			c-1.762-10.921-3.706-21.311-5.803-30.662c-0.098-0.436-0.48-0.625-0.77-0.386l-11.394,9.342
			c-0.482,0.395-1.024-0.377-0.695-0.991l10.024-18.698c0.099-0.184,0.123-0.425,0.067-0.639c-1.794-6.76-3.679-12.703-5.639-17.557
			c-0.128-0.318-0.419-0.445-0.667-0.3l-7.905,4.634c-0.407,0.239-0.836-0.27-0.705-0.837l2.482-9.971
			c0.041-0.179,0.219-0.911,0.416-1.549l0.647-2.571c-1.835-2.256-3.714-3.491-5.63-3.491c-2.048,0-4.056,1.395-6.011,3.959
			l2.947,13.623c0.131,0.566-0.298,1.075-0.705,0.837l-7.112-4.169c-0.25-0.146-0.541-0.017-0.669,0.304
			c-2.01,5.063-3.941,11.265-5.775,18.318c-0.055,0.213-0.03,0.45,0.068,0.633l9.368,17.473c0.329,0.614-0.212,1.387-0.695,0.991
			L142.8,84.416c-0.291-0.239-0.674-0.049-0.771,0.388c-2.108,9.482-4.06,20.008-5.825,31.058c-0.037,0.23,0.016,0.47,0.141,0.637
			l7.996,10.653c0.401,0.535-0.041,1.417-0.566,1.128l-8.156-4.497c-0.303-0.167-0.646,0.075-0.71,0.504
			c-1.316,8.894-2.51,18.031-3.567,27.155c-0.031,0.264,0.055,0.528,0.221,0.679l13.772,12.511c0.466,0.423,0.163,1.392-0.391,1.251
			l-14.238-3.648c-0.293-0.075-0.573,0.194-0.614,0.587c-1.459,14.072-2.573,27.856-3.285,40.4
			c-0.017,0.297,0.111,0.571,0.316,0.687l16.343,9.226c0.565,0.319,0.321,1.449-0.285,1.32l-16.197-3.468
			c-0.304-0.065-0.584,0.239-0.602,0.648c-0.317,7.214-0.483,13.896-0.483,19.83c0,3.765,0.069,7.377,0.198,10.848
			c0.011,0.29,0.157,0.537,0.365,0.624l17.079,7.139c0.548,0.229,0.452,1.299-0.121,1.35l-16.154,1.435
			c-0.296,0.026-0.517,0.383-0.483,0.776c1.001,11.683,2.821,21.424,5.294,29.404c0.104,0.335,0.384,0.502,0.642,0.391l9.917-4.285
			c0.51-0.221,0.906,0.609,0.539,1.131l-7.665,10.893c-0.16,0.227-0.187,0.573-0.066,0.839c6.587,14.5,16.023,20.772,26.504,20.772
			c10.274,0,19.542-6.03,26.109-19.926c0.126-0.267,0.101-0.619-0.061-0.849l-8.253-11.728c-0.367-0.522,0.029-1.352,0.539-1.131
			l10.78,4.658c0.257,0.111,0.537-0.054,0.641-0.387c2.527-8.03,4.385-17.865,5.404-29.693c0.034-0.393-0.187-0.75-0.483-0.776
			l-17.125-1.521c-0.573-0.051-0.669-1.121-0.121-1.35l17.86-7.465c0.17-0.071,0.3-0.253,0.346-0.482l0.254-1.268
			c0.01-0.05,0.016-0.1,0.017-0.152c0.093-2.979,0.144-6.055,0.144-9.245C198,225.473,197.831,218.72,197.508,211.426z"/>
		<polygon style="fill:#263238;" points="163.378,260.661 162.276,197.985 181.543,182.021 162.134,189.906 161.775,169.416 
			161.612,169.752 161.728,166.751 161.21,137.296 177.162,122.571 161.518,131.958 161.171,135.074 160.53,98.578 160.18,105.772 
			158.492,160.317 157.763,158.867 145.247,150.732 158.393,163.51 156.253,232.665 136.486,226.453 156.029,239.889 
			154.559,287.39 147.124,285.904 154.326,294.906 153.525,320.802 152.54,375 165.386,375 163.477,266.34 179.04,262.749 		"/>
		<polygon style="opacity:0.5;fill:#FFFFFF;" points="163.378,260.661 162.276,197.985 181.543,182.021 162.134,189.906 
			161.775,169.416 161.612,169.752 161.728,166.751 161.21,137.296 177.162,122.571 161.518,131.958 161.171,135.074 160.53,98.578 
			160.18,105.772 158.492,160.317 157.763,158.867 145.247,150.732 158.393,163.51 156.253,232.665 136.486,226.453 
			156.029,239.889 154.559,287.39 147.124,285.904 154.326,294.906 153.525,320.802 152.54,375 165.386,375 163.477,266.34 
			179.04,262.749 		"/>
	</g>
	<g>
		<path style="fill:#92E3A9;" d="M89.59,238.651c-0.015-0.341-0.249-0.594-0.502-0.54l-14.31,3.064
			c-0.505,0.108-0.708-0.834-0.237-1.1l14.413-8.137c0.171-0.097,0.278-0.326,0.263-0.573c-0.598-10.397-1.525-21.799-2.734-33.433
			c-0.034-0.327-0.268-0.552-0.512-0.489l-12.663,3.245c-0.461,0.118-0.714-0.69-0.326-1.042l12.218-11.099
			c0.138-0.126,0.21-0.346,0.185-0.567c-0.656-5.616-1.373-11.234-2.148-16.769l-0.997-5.533c-0.062-0.345-0.34-0.534-0.586-0.398
			l-7.371,4.063c-0.437,0.241-0.806-0.494-0.471-0.94l7.337-9.775c0.104-0.139,0.148-0.34,0.117-0.532
			c-1.469-9.103-3.09-17.764-4.838-25.559c-0.082-0.363-0.4-0.521-0.642-0.322l-9.498,7.787c-0.402,0.33-0.853-0.314-0.579-0.826
			l8.356-15.586c0.082-0.154,0.103-0.354,0.056-0.533c-1.495-5.635-3.067-10.589-4.7-14.635c-0.107-0.265-0.349-0.371-0.556-0.25
			l-6.59,3.863c-0.339,0.199-0.697-0.225-0.588-0.697l2.069-8.312c0.035-0.15,0.183-0.759,0.347-1.292l0.539-2.143
			c-1.529-1.881-3.096-2.91-4.693-2.91c-1.707,0-3.381,1.163-5.011,3.3l2.457,11.356c0.109,0.472-0.249,0.896-0.588,0.697
			l-5.928-3.475c-0.208-0.122-0.451-0.014-0.557,0.253c-1.676,4.22-3.285,9.39-4.814,15.269c-0.046,0.177-0.025,0.375,0.057,0.528
			l7.809,14.565c0.274,0.512-0.177,1.156-0.579,0.826l-8.809-7.222c-0.243-0.199-0.562-0.041-0.642,0.324
			c-1.757,7.904-3.384,16.678-4.855,25.889c-0.031,0.192,0.014,0.392,0.118,0.531l6.665,8.88c0.335,0.446-0.034,1.182-0.472,0.94
			l-6.799-3.748c-0.253-0.139-0.539,0.062-0.592,0.42c-1.097,7.413-2.092,15.03-2.973,22.636c-0.026,0.22,0.046,0.441,0.185,0.566
			l11.48,10.429c0.388,0.353,0.136,1.161-0.326,1.042l-11.868-3.041c-0.244-0.063-0.478,0.162-0.512,0.49
			c-1.216,11.73-2.145,23.219-2.739,33.676c-0.014,0.247,0.092,0.476,0.264,0.573l13.623,7.691c0.471,0.266,0.267,1.208-0.237,1.1
			l-13.501-2.891c-0.253-0.054-0.487,0.199-0.502,0.54c-0.264,6.014-0.403,11.583-0.403,16.529c0,3.138,0.057,6.149,0.165,9.042
			c0.009,0.242,0.131,0.448,0.304,0.521l14.237,5.951c0.457,0.191,0.377,1.083-0.101,1.125l-13.465,1.196
			c-0.247,0.022-0.431,0.319-0.403,0.647c0.834,9.738,2.351,17.858,4.413,24.51c0.086,0.279,0.32,0.419,0.536,0.326l8.267-3.572
			c0.425-0.184,0.755,0.508,0.449,0.943l-6.389,9.08c-0.133,0.189-0.156,0.478-0.055,0.7c5.491,12.087,13.356,17.314,22.093,17.314
			c8.564,0,16.29-5.026,21.763-16.61c0.105-0.223,0.084-0.516-0.051-0.708l-6.879-9.776c-0.306-0.435,0.024-1.127,0.449-0.943
			l8.986,3.883c0.215,0.093,0.447-0.045,0.535-0.323c2.106-6.693,3.655-14.892,4.504-24.751c0.028-0.328-0.156-0.625-0.403-0.647
			l-14.275-1.268c-0.478-0.042-0.558-0.934-0.101-1.125l14.887-6.223c0.141-0.059,0.25-0.211,0.288-0.402l0.212-1.057
			c0.008-0.042,0.013-0.084,0.014-0.127c0.078-2.483,0.12-5.047,0.12-7.706C90,250.36,89.859,244.731,89.59,238.651z"/>
		<path style="opacity:0.4;fill:#FFFFFF;" d="M89.59,238.651c-0.015-0.341-0.249-0.594-0.502-0.54l-14.31,3.064
			c-0.505,0.108-0.708-0.834-0.237-1.1l14.413-8.137c0.171-0.097,0.278-0.326,0.263-0.573c-0.598-10.397-1.525-21.799-2.734-33.433
			c-0.034-0.327-0.268-0.552-0.512-0.489l-12.663,3.245c-0.461,0.118-0.714-0.69-0.326-1.042l12.218-11.099
			c0.138-0.126,0.21-0.346,0.185-0.567c-0.656-5.616-1.373-11.234-2.148-16.769l-0.997-5.533c-0.062-0.345-0.34-0.534-0.586-0.398
			l-7.371,4.063c-0.437,0.241-0.806-0.494-0.471-0.94l7.337-9.775c0.104-0.139,0.148-0.34,0.117-0.532
			c-1.469-9.103-3.09-17.764-4.838-25.559c-0.082-0.363-0.4-0.521-0.642-0.322l-9.498,7.787c-0.402,0.33-0.853-0.314-0.579-0.826
			l8.356-15.586c0.082-0.154,0.103-0.354,0.056-0.533c-1.495-5.635-3.067-10.589-4.7-14.635c-0.107-0.265-0.349-0.371-0.556-0.25
			l-6.59,3.863c-0.339,0.199-0.697-0.225-0.588-0.697l2.069-8.312c0.035-0.15,0.183-0.759,0.347-1.292l0.539-2.143
			c-1.529-1.881-3.096-2.91-4.693-2.91c-1.707,0-3.381,1.163-5.011,3.3l2.457,11.356c0.109,0.472-0.249,0.896-0.588,0.697
			l-5.928-3.475c-0.208-0.122-0.451-0.014-0.557,0.253c-1.676,4.22-3.285,9.39-4.814,15.269c-0.046,0.177-0.025,0.375,0.057,0.528
			l7.809,14.565c0.274,0.512-0.177,1.156-0.579,0.826l-8.809-7.222c-0.243-0.199-0.562-0.041-0.642,0.324
			c-1.757,7.904-3.384,16.678-4.855,25.889c-0.031,0.192,0.014,0.392,0.118,0.531l6.665,8.88c0.335,0.446-0.034,1.182-0.472,0.94
			l-6.799-3.748c-0.253-0.139-0.539,0.062-0.592,0.42c-1.097,7.413-2.092,15.03-2.973,22.636c-0.026,0.22,0.046,0.441,0.185,0.566
			l11.48,10.429c0.388,0.353,0.136,1.161-0.326,1.042l-11.868-3.041c-0.244-0.063-0.478,0.162-0.512,0.49
			c-1.216,11.73-2.145,23.219-2.739,33.676c-0.014,0.247,0.092,0.476,0.264,0.573l13.623,7.691c0.471,0.266,0.267,1.208-0.237,1.1
			l-13.501-2.891c-0.253-0.054-0.487,0.199-0.502,0.54c-0.264,6.014-0.403,11.583-0.403,16.529c0,3.138,0.057,6.149,0.165,9.042
			c0.009,0.242,0.131,0.448,0.304,0.521l14.237,5.951c0.457,0.191,0.377,1.083-0.101,1.125l-13.465,1.196
			c-0.247,0.022-0.431,0.319-0.403,0.647c0.834,9.738,2.351,17.858,4.413,24.51c0.086,0.279,0.32,0.419,0.536,0.326l8.267-3.572
			c0.425-0.184,0.755,0.508,0.449,0.943l-6.389,9.08c-0.133,0.189-0.156,0.478-0.055,0.7c5.491,12.087,13.356,17.314,22.093,17.314
			c8.564,0,16.29-5.026,21.763-16.61c0.105-0.223,0.084-0.516-0.051-0.708l-6.879-9.776c-0.306-0.435,0.024-1.127,0.449-0.943
			l8.986,3.883c0.215,0.093,0.447-0.045,0.535-0.323c2.106-6.693,3.655-14.892,4.504-24.751c0.028-0.328-0.156-0.625-0.403-0.647
			l-14.275-1.268c-0.478-0.042-0.558-0.934-0.101-1.125l14.887-6.223c0.141-0.059,0.25-0.211,0.288-0.402l0.212-1.057
			c0.008-0.042,0.013-0.084,0.014-0.127c0.078-2.483,0.12-5.047,0.12-7.706C90,250.36,89.859,244.731,89.59,238.651z"/>
		<polygon style="fill:#263238;" points="61.14,279.691 60.222,227.447 76.282,214.14 60.104,220.712 59.804,203.633 
			59.669,203.913 59.765,201.411 59.333,176.858 72.631,164.584 59.59,172.409 59.301,175.007 58.766,144.585 58.475,150.581 
			57.068,196.048 56.46,194.839 46.027,188.058 56.985,198.71 55.201,256.355 38.724,251.176 55.015,262.376 53.789,301.972 
			47.592,300.732 53.595,308.236 52.927,329.822 52.106,375 62.814,375 61.223,284.425 74.196,281.432 		"/>
		<polygon style="opacity:0.5;fill:#FFFFFF;" points="61.14,279.691 60.222,227.447 76.282,214.14 60.104,220.712 59.804,203.633 
			59.669,203.913 59.765,201.411 59.333,176.858 72.631,164.584 59.59,172.409 59.301,175.007 58.766,144.585 58.475,150.581 
			57.068,196.048 56.46,194.839 46.027,188.058 56.985,198.71 55.201,256.355 38.724,251.176 55.015,262.376 53.789,301.972 
			47.592,300.732 53.595,308.236 52.927,329.822 52.106,375 62.814,375 61.223,284.425 74.196,281.432 		"/>
	</g>
</g>
<g id="Floor">
	
		<line style="fill:none;stroke:#263238;stroke-linecap:round;stroke-linejoin:round;stroke-miterlimit:10;" x1="17" y1="375" x2="487" y2="375"/>
</g>
<g id="Device">
	<g>
		<g>
			<path style="fill:#FFFFFF;stroke:#263238;stroke-linecap:round;stroke-linejoin:round;stroke-miterlimit:10;" d="M423.659,37.417
				h-54.392l-0.055,0.197c-1.609,5.797-5.317,9.559-9.421,9.559h-2.361c-4.104,0-7.812-3.762-9.421-9.559l-0.055-0.197h-54.392
				c-15.149,0-27.43,12.281-27.43,27.43v331.649c0,8.693,7.047,15.74,15.74,15.74h153.476c8.693,0,15.74-7.047,15.74-15.74V64.847
				C451.089,49.698,438.808,37.417,423.659,37.417z"/>
			<path style="fill:#C2C2C2;stroke:#263238;stroke-linecap:round;stroke-linejoin:round;stroke-miterlimit:10;" d="M451.089,87.415
				V64.847c0-15.149-12.281-27.43-27.43-27.43h-54.392l-0.055,0.197c-1.609,5.797-5.317,9.559-9.421,9.559h-2.361
				c-4.104,0-7.812-3.762-9.421-9.559l-0.055-0.197h-54.392c-15.149,0-27.43,12.281-27.43,27.43v22.568H451.089z"/>
			<path style="fill:#FFFFFF;stroke:#263238;stroke-linecap:round;stroke-linejoin:round;stroke-miterlimit:10;" d="M451.089,72.839
				v-7.992c0-15.149-12.281-27.43-27.43-27.43h-54.392l-0.055,0.197c-1.609,5.797-5.317,9.559-9.421,9.559h-2.361
				c-4.104,0-7.812-3.762-9.421-9.559l-0.055-0.197h-54.392c-15.149,0-27.43,12.281-27.43,27.43v7.992H451.089z"/>
			<g>
				<g>
					<path style="fill:#707070;stroke:#263238;stroke-linecap:round;stroke-linejoin:round;stroke-miterlimit:10;" d="
						M462.854,137.836v-34.759h-3.144v-44.5c0-15.149-12.281-27.43-27.43-27.43H284.943c-15.149,0-27.43,12.281-27.43,27.43V400.57
						c0,15.149,12.281,27.43,27.43,27.43H432.28c15.149,0,27.43-12.281,27.43-27.43V167.46h3.144V146.92h-3.144v-9.085H462.854z
						 M451.089,380.978c0,15.149-12.281,27.43-27.43,27.43H293.563c-15.149,0-27.43-12.281-27.43-27.43V64.847
						c0-15.149,12.281-27.43,27.43-27.43h54.392l0.055,0.197c1.609,5.797,5.317,9.559,9.421,9.559h2.361
						c4.104,0,7.812-3.762,9.421-9.559l0.055-0.197h54.392c15.149,0,27.43,12.281,27.43,27.43V380.978z"/>
					<path style="fill:#263238;stroke:#263238;stroke-linecap:round;stroke-linejoin:round;stroke-miterlimit:10;" d="
						M427.474,34.926H289.748c-16.049,0-29.06,13.011-29.06,29.06v331.176c0,16.049,13.01,29.06,29.06,29.06h137.726
						c16.049,0,29.06-13.011,29.06-29.06V63.986C456.534,47.936,443.524,34.926,427.474,34.926z M451.089,380.978
						c0,15.149-12.281,27.43-27.43,27.43H293.563c-15.149,0-27.43-12.281-27.43-27.43V64.847c0-15.149,12.281-27.43,27.43-27.43
						h54.392l0.055,0.197c1.609,5.797,5.317,9.559,9.421,9.559h2.361c4.104,0,7.812-3.762,9.421-9.559l0.055-0.197h54.392
						c15.149,0,27.43,12.281,27.43,27.43V380.978z"/>
				</g>
				<path style="fill:#707070;" d="M360.622,38.732c0-1.422-1.153-2.575-2.575-2.575c-1.422,0-2.575,1.153-2.575,2.575
					c0,1.422,1.153,2.575,2.575,2.575C359.469,41.307,360.622,40.154,360.622,38.732z"/>
			</g>
			<g>
				<g>
					<g>
						<path style="fill:#263238;" d="M282.57,48.6c0,2.606-2.926,3.544-2.938,5.531v0.136h2.84v0.877h-3.79v-0.741
							c0-2.79,2.926-3.333,2.926-5.766c0-0.889-0.297-1.358-1.013-1.358c-0.704,0-1.013,0.506-1.013,1.271v0.766h-0.901v-0.703
							c0-1.321,0.605-2.198,1.938-2.198C281.965,46.414,282.57,47.279,282.57,48.6z"/>
						<path style="fill:#263238;" d="M287.3,48.588v0.222c0,0.889-0.357,1.519-1.049,1.778c0.728,0.272,1.049,0.926,1.049,1.79
							v0.667c0,1.321-0.617,2.185-1.951,2.185c-1.321,0-1.938-0.864-1.938-2.185v-0.593h0.901v0.654
							c0,0.778,0.321,1.247,1.013,1.247c0.704,0,1.013-0.457,1.013-1.333v-0.667c0-0.852-0.358-1.259-1.087-1.284h-0.518v-0.865
							h0.568c0.642-0.025,1.038-0.432,1.038-1.185v-0.396c0-0.889-0.309-1.345-1.013-1.345c-0.692,0-1.013,0.481-1.013,1.259v0.444
							h-0.901v-0.395c0-1.321,0.617-2.173,1.938-2.173C286.683,46.414,287.3,47.267,287.3,48.588z"/>
						<path style="fill:#263238;" d="M289.166,49.242v1.198h-0.926v-1.198H289.166z M289.166,53.946v1.198h-0.926v-1.198H289.166z"
							/>
						<path style="fill:#263238;" d="M291.117,50.02c0.272-0.47,0.703-0.716,1.284-0.716c1.111,0,1.604,0.815,1.604,2.049v1.692
							c0,1.321-0.629,2.185-1.95,2.185c-1.322,0-1.939-0.864-1.939-2.185v-0.58h0.901v0.642c0,0.778,0.321,1.247,1.013,1.247
							c0.691,0,1.013-0.469,1.013-1.247v-1.679c0-0.778-0.321-1.247-1.013-1.247c-0.531,0-0.889,0.297-0.975,0.926v0.198h-0.901
							l0.234-4.803h3.407v0.864h-2.544L291.117,50.02z"/>
						<path style="fill:#263238;" d="M298.811,48.575v0.16h-0.901v-0.222c0-0.778-0.321-1.234-1.025-1.234
							c-0.729,0-1.05,0.469-1.05,1.395v1.938c0.234-0.592,0.704-0.926,1.395-0.926c1.111,0,1.606,0.803,1.606,2.05v1.309
							c0,1.321-0.655,2.185-1.976,2.185c-1.334,0-1.988-0.864-1.988-2.185v-4.408c0-1.37,0.618-2.223,1.988-2.223
							C298.193,46.414,298.811,47.254,298.811,48.575z M295.835,51.81v1.296c0,0.778,0.321,1.247,1.025,1.247
							c0.692,0,1.025-0.469,1.025-1.247V51.81c0-0.778-0.333-1.247-1.025-1.247C296.156,50.563,295.835,51.032,295.835,51.81z"/>
					</g>
					<g>
						<rect x="390.724" y="48.955" style="fill:#263238;" width="2.44" height="6.101"/>
						<rect x="393.977" y="47.733" style="fill:#263238;" width="2.44" height="7.323"/>
						<rect x="397.231" y="46.865" style="fill:#263238;" width="2.44" height="8.191"/>
						<rect x="400.485" y="45.356" style="fill:#263238;" width="2.44" height="9.7"/>
						<g>
							<g>
								<path style="fill:#263238;" d="M433.124,54.889h-14.642v-8.948h14.642V54.889z M419.296,54.075h13.015v-7.321h-13.015
									V54.075z"/>
							</g>
							<g>
								<rect x="420.516" y="47.639" style="fill:#263238;" width="7.728" height="5.55"/>
							</g>
							<g>
								<rect x="432.616" y="49.361" style="fill:#263238;" width="1.841" height="2.108"/>
							</g>
						</g>
						<g>
							<path style="fill:#263238;" d="M413.114,52.942c-0.095,0-0.192-0.025-0.28-0.077c-2.98-1.771-4.949-0.127-5.032-0.058
								c-0.227,0.198-0.572,0.172-0.77-0.055c-0.198-0.228-0.176-0.569,0.05-0.768c0.106-0.093,2.624-2.25,6.311-0.06
								c0.26,0.154,0.345,0.49,0.19,0.75C413.481,52.847,413.3,52.942,413.114,52.942z"/>
						</g>
						<g>
							<path style="fill:#263238;" d="M414.216,51.104c-0.095,0-0.192-0.025-0.28-0.077c-4.309-2.562-7.204-0.083-7.234-0.06
								c-0.226,0.201-0.571,0.177-0.771-0.049c-0.2-0.226-0.178-0.572,0.049-0.771c0.035-0.032,3.528-3.024,8.515-0.06
								c0.26,0.154,0.345,0.49,0.19,0.75C414.583,51.009,414.402,51.104,414.216,51.104z"/>
						</g>
						<g>
							<path style="fill:#263238;" d="M415.217,48.975c-0.095,0-0.192-0.024-0.28-0.077c-5.456-3.245-9.085-0.19-9.236-0.058
								c-0.227,0.198-0.573,0.173-0.771-0.053c-0.199-0.226-0.176-0.57,0.05-0.769c0.043-0.038,4.353-3.725,10.517-0.06
								c0.26,0.154,0.345,0.49,0.19,0.75C415.584,48.88,415.403,48.975,415.217,48.975z"/>
						</g>
						<g>
							<path style="fill:#263238;" d="M411.468,53.859c0,0.758-0.614,1.372-1.372,1.372c-0.758,0-1.372-0.614-1.372-1.372
								c0-0.758,0.614-1.372,1.372-1.372C410.853,52.487,411.468,53.101,411.468,53.859z"/>
						</g>
					</g>
				</g>
			</g>
		</g>
		
			<rect x="283.515" y="75.879" style="fill:#FFFFFF;stroke:#263238;stroke-linecap:round;stroke-linejoin:round;stroke-miterlimit:10;" width="61.8" height="7.416"/>
		<g>
			<g>
				<g>
					<line style="fill:none;stroke:#B2B2B2;stroke-miterlimit:10;" x1="359.161" y1="301.148" x2="432.66" y2="301.148"/>
					<line style="fill:none;stroke:#B2B2B2;stroke-miterlimit:10;" x1="280.609" y1="301.148" x2="350.259" y2="301.148"/>
					<line style="fill:none;stroke:#B2B2B2;stroke-miterlimit:10;" x1="405.726" y1="313.84" x2="432.66" y2="313.84"/>
					<line style="fill:none;stroke:#B2B2B2;stroke-miterlimit:10;" x1="320.814" y1="313.84" x2="396.139" y2="313.84"/>
					<line style="fill:none;stroke:#B2B2B2;stroke-miterlimit:10;" x1="280.609" y1="313.84" x2="311.911" y2="313.84"/>
					<line style="fill:none;stroke:#B2B2B2;stroke-miterlimit:10;" x1="370.802" y1="326.533" x2="432.66" y2="326.533"/>
					<line style="fill:none;stroke:#B2B2B2;stroke-miterlimit:10;" x1="280.609" y1="326.533" x2="361.215" y2="326.533"/>
					<line style="fill:none;stroke:#B2B2B2;stroke-miterlimit:10;" x1="308.488" y1="339.225" x2="432.66" y2="339.225"/>
					<line style="fill:none;stroke:#B2B2B2;stroke-miterlimit:10;" x1="280.609" y1="339.225" x2="294.792" y2="339.225"/>
				</g>
				<g>
					<line style="fill:none;stroke:#B2B2B2;stroke-miterlimit:10;" x1="359.161" y1="349.764" x2="432.66" y2="349.764"/>
					<line style="fill:none;stroke:#B2B2B2;stroke-miterlimit:10;" x1="280.609" y1="349.764" x2="350.259" y2="349.764"/>
					<line style="fill:none;stroke:#B2B2B2;stroke-miterlimit:10;" x1="405.726" y1="362.457" x2="432.66" y2="362.457"/>
					<line style="fill:none;stroke:#B2B2B2;stroke-miterlimit:10;" x1="320.814" y1="362.457" x2="396.139" y2="362.457"/>
					<line style="fill:none;stroke:#B2B2B2;stroke-miterlimit:10;" x1="280.609" y1="362.457" x2="311.911" y2="362.457"/>
					<line style="fill:none;stroke:#B2B2B2;stroke-miterlimit:10;" x1="370.802" y1="375.149" x2="432.66" y2="375.149"/>
					<line style="fill:none;stroke:#B2B2B2;stroke-miterlimit:10;" x1="280.609" y1="375.149" x2="361.215" y2="375.149"/>
					<line style="fill:none;stroke:#B2B2B2;stroke-miterlimit:10;" x1="308.488" y1="387.842" x2="432.66" y2="387.842"/>
					<line style="fill:none;stroke:#B2B2B2;stroke-miterlimit:10;" x1="280.609" y1="387.842" x2="294.792" y2="387.842"/>
				</g>
			</g>
			<g>
				<g>
					<line style="fill:none;stroke:#B2B2B2;stroke-miterlimit:10;" x1="354.108" y1="202.708" x2="280.609" y2="202.708"/>
					<line style="fill:none;stroke:#B2B2B2;stroke-miterlimit:10;" x1="432.66" y1="202.708" x2="363.01" y2="202.708"/>
					<line style="fill:none;stroke:#B2B2B2;stroke-miterlimit:10;" x1="307.543" y1="215.4" x2="280.609" y2="215.4"/>
					<line style="fill:none;stroke:#B2B2B2;stroke-miterlimit:10;" x1="392.455" y1="215.4" x2="317.13" y2="215.4"/>
					<line style="fill:none;stroke:#B2B2B2;stroke-miterlimit:10;" x1="432.66" y1="215.4" x2="401.357" y2="215.4"/>
					<line style="fill:none;stroke:#B2B2B2;stroke-miterlimit:10;" x1="342.467" y1="228.093" x2="280.609" y2="228.093"/>
					<line style="fill:none;stroke:#B2B2B2;stroke-miterlimit:10;" x1="432.66" y1="228.093" x2="352.054" y2="228.093"/>
					<line style="fill:none;stroke:#B2B2B2;stroke-miterlimit:10;" x1="404.781" y1="240.786" x2="280.609" y2="240.786"/>
					<line style="fill:none;stroke:#B2B2B2;stroke-miterlimit:10;" x1="432.66" y1="240.786" x2="418.477" y2="240.786"/>
				</g>
				<g>
					<line style="fill:none;stroke:#B2B2B2;stroke-miterlimit:10;" x1="354.108" y1="251.324" x2="280.609" y2="251.324"/>
					<line style="fill:none;stroke:#B2B2B2;stroke-miterlimit:10;" x1="432.66" y1="251.324" x2="363.01" y2="251.324"/>
					<line style="fill:none;stroke:#B2B2B2;stroke-miterlimit:10;" x1="307.543" y1="264.017" x2="280.609" y2="264.017"/>
					<line style="fill:none;stroke:#B2B2B2;stroke-miterlimit:10;" x1="392.455" y1="264.017" x2="317.13" y2="264.017"/>
					<line style="fill:none;stroke:#B2B2B2;stroke-miterlimit:10;" x1="432.66" y1="264.017" x2="401.357" y2="264.017"/>
					<line style="fill:none;stroke:#B2B2B2;stroke-miterlimit:10;" x1="342.467" y1="276.709" x2="280.609" y2="276.709"/>
					<line style="fill:none;stroke:#B2B2B2;stroke-miterlimit:10;" x1="432.66" y1="276.709" x2="352.054" y2="276.709"/>
					<line style="fill:none;stroke:#B2B2B2;stroke-miterlimit:10;" x1="404.781" y1="289.402" x2="280.609" y2="289.402"/>
					<line style="fill:none;stroke:#B2B2B2;stroke-miterlimit:10;" x1="432.66" y1="289.402" x2="418.477" y2="289.402"/>
				</g>
			</g>
			<g>
				<g>
					<line style="fill:none;stroke:#B2B2B2;stroke-miterlimit:10;" x1="404.781" y1="142.346" x2="280.609" y2="142.346"/>
					<line style="fill:none;stroke:#B2B2B2;stroke-miterlimit:10;" x1="432.66" y1="142.346" x2="418.477" y2="142.346"/>
				</g>
				<g>
					<line style="fill:none;stroke:#B2B2B2;stroke-miterlimit:10;" x1="354.108" y1="152.884" x2="280.609" y2="152.884"/>
					<line style="fill:none;stroke:#B2B2B2;stroke-miterlimit:10;" x1="432.66" y1="152.884" x2="363.01" y2="152.884"/>
					<line style="fill:none;stroke:#B2B2B2;stroke-miterlimit:10;" x1="307.543" y1="165.577" x2="280.609" y2="165.577"/>
					<line style="fill:none;stroke:#B2B2B2;stroke-miterlimit:10;" x1="392.455" y1="165.577" x2="317.13" y2="165.577"/>
					<line style="fill:none;stroke:#B2B2B2;stroke-miterlimit:10;" x1="432.66" y1="165.577" x2="401.357" y2="165.577"/>
					<line style="fill:none;stroke:#B2B2B2;stroke-miterlimit:10;" x1="342.467" y1="178.269" x2="280.609" y2="178.269"/>
					<line style="fill:none;stroke:#B2B2B2;stroke-miterlimit:10;" x1="432.66" y1="178.269" x2="352.054" y2="178.269"/>
					<line style="fill:none;stroke:#B2B2B2;stroke-miterlimit:10;" x1="404.781" y1="190.962" x2="280.609" y2="190.962"/>
					<line style="fill:none;stroke:#B2B2B2;stroke-miterlimit:10;" x1="432.66" y1="190.962" x2="418.477" y2="190.962"/>
				</g>
			</g>
			<rect x="282.691" y="94.831" style="fill:#B2B2B2;" width="149.145" height="18.128"/>
		</g>
		<g>
			
				<rect x="262.755" y="123.761" style="fill:#263238;stroke:#263238;stroke-linecap:round;stroke-linejoin:round;stroke-miterlimit:10;" width="154.691" height="200.189"/>
			<g>
				<g>
					
						<rect x="221.992" y="110.526" style="fill:#FFFFFF;stroke:#263238;stroke-linecap:round;stroke-linejoin:round;stroke-miterlimit:10;" width="188.332" height="204.276"/>
					
						<rect x="221.992" y="266.718" style="fill:#FFFFFF;stroke:#263238;stroke-linecap:round;stroke-linejoin:round;stroke-miterlimit:10;" width="188.332" height="48.083"/>
					
						<rect x="221.992" y="110.526" style="fill:#92E3A9;stroke:#263238;stroke-linecap:round;stroke-linejoin:round;stroke-miterlimit:10;" width="188.332" height="17.936"/>
					
						<circle style="fill:#FFFFFF;stroke:#263238;stroke-linecap:round;stroke-linejoin:round;stroke-miterlimit:10;" cx="241.921" cy="152.774" r="12.954"/>
					
						<rect x="264.84" y="143.409" style="fill:#FFFFFF;stroke:#263238;stroke-linecap:round;stroke-linejoin:round;stroke-miterlimit:10;" width="124.558" height="18.933"/>
					
						<rect x="264.84" y="174.3" style="fill:#FFFFFF;stroke:#263238;stroke-linecap:round;stroke-linejoin:round;stroke-miterlimit:10;" width="124.558" height="65.971"/>
					<rect x="269.861" y="179.921" style="fill:#92E3A9;" width="112.28" height="52.556"/>
					<g>
						<g>
							
								<rect x="271.151" y="189.208" style="fill:#263238;stroke:#263238;stroke-linecap:round;stroke-linejoin:round;stroke-miterlimit:10;" width="46.369" height="36.487"/>
							<polygon style="fill:#FFFFFF;stroke:#263238;stroke-linecap:round;stroke-linejoin:round;stroke-miterlimit:10;" points="
								317.52,206.235 311.439,201.37 300.037,214.293 287.875,208.212 271.151,225.695 317.52,225.695 							"/>
							<path style="fill:#FFFFFF;stroke:#263238;stroke-linecap:round;stroke-linejoin:round;stroke-miterlimit:10;" d="
								M284.834,198.71c0,2.729-2.212,4.941-4.941,4.941c-2.729,0-4.941-2.212-4.941-4.941s2.212-4.941,4.941-4.941
								C282.622,193.769,284.834,195.981,284.834,198.71z"/>
						</g>
						<g>
							<path style="fill:#263238;" d="M321.734,191.438l-0.386,2.02h-1.031l1.919-10.028h1.619l1.92,10.028h-1.117l-0.387-2.02
								H321.734z M321.878,190.478h2.235l-1.132-5.787L321.878,190.478z"/>
							<path style="fill:#263238;" d="M328.886,183.43c1.576,0,2.235,0.803,2.235,2.292v0.817c0,1.103-0.387,1.791-1.246,2.063
								c0.917,0.272,1.26,1.017,1.26,2.091v1.562c0,0.444,0.015,0.86,0.201,1.203h-1.132c-0.13-0.286-0.187-0.544-0.187-1.218
								v-1.576c0-1.132-0.53-1.49-1.46-1.49h-0.789v4.283h-1.117V183.43H328.886z M328.6,188.157c0.888,0,1.417-0.286,1.417-1.375
								v-0.96c0-0.902-0.329-1.375-1.159-1.375h-1.09v3.711H328.6z"/>
							<path style="fill:#263238;" d="M333.746,193.458v-9.011h-1.849v-1.017h4.8v1.017h-1.849v9.011H333.746z"/>
							<path style="fill:#263238;" d="M338.576,183.43v10.028h-1.117V183.43H338.576z"/>
							<path style="fill:#263238;" d="M344.15,185.851v0.903h-1.06v-0.96c0-0.902-0.358-1.447-1.175-1.447
								c-0.801,0-1.175,0.545-1.175,1.447v5.3c0,0.903,0.373,1.447,1.175,1.447c0.816,0,1.175-0.544,1.175-1.447v-1.303h1.06v1.246
								c0,1.519-0.716,2.521-2.263,2.521c-1.533,0-2.249-1.003-2.249-2.521v-5.186c0-1.518,0.716-2.521,2.249-2.521
								C343.434,183.329,344.15,184.333,344.15,185.851z"/>
							<path style="fill:#263238;" d="M345.17,193.458V183.43h1.117v9.011h2.865v1.017H345.17z"/>
							<path style="fill:#263238;" d="M353.567,187.871v1.003h-2.45v3.567h3.008v1.017H350V183.43h4.126v1.017h-3.008v3.424H353.567
								z"/>
						</g>
						<g>
							<line style="fill:none;stroke:#263238;stroke-miterlimit:10;" x1="351.679" y1="201.421" x2="380.549" y2="201.421"/>
							<line style="fill:none;stroke:#263238;stroke-miterlimit:10;" x1="320.825" y1="201.421" x2="348.183" y2="201.421"/>
							<line style="fill:none;stroke:#263238;stroke-miterlimit:10;" x1="369.969" y1="209.384" x2="380.549" y2="209.384"/>
							<line style="fill:none;stroke:#263238;stroke-miterlimit:10;" x1="336.617" y1="209.384" x2="366.204" y2="209.384"/>
							<line style="fill:none;stroke:#263238;stroke-miterlimit:10;" x1="320.825" y1="209.384" x2="333.12" y2="209.384"/>
							<line style="fill:none;stroke:#263238;stroke-miterlimit:10;" x1="356.252" y1="217.347" x2="380.549" y2="217.347"/>
							<line style="fill:none;stroke:#263238;stroke-miterlimit:10;" x1="320.825" y1="217.347" x2="352.486" y2="217.347"/>
							<line style="fill:none;stroke:#263238;stroke-miterlimit:10;" x1="331.776" y1="225.31" x2="380.549" y2="225.31"/>
							<line style="fill:none;stroke:#263238;stroke-miterlimit:10;" x1="320.825" y1="225.31" x2="326.396" y2="225.31"/>
						</g>
					</g>
					<g>
						
							<rect x="277.028" y="275.478" style="fill:#92E3A9;stroke:#263238;stroke-linecap:round;stroke-linejoin:round;stroke-miterlimit:10;" width="50.168" height="25.482"/>
						<g>
							<path style="fill:#263238;" d="M292.772,285.491v0.303h-1.182v-0.368c0-1.006-0.383-1.597-1.277-1.597
								s-1.277,0.591-1.277,1.581c0,2.507,3.752,2.746,3.752,5.892c0,1.692-0.815,2.794-2.523,2.794
								c-1.708,0-2.507-1.102-2.507-2.794v-0.639h1.165v0.703c0,1.006,0.415,1.597,1.309,1.597s1.309-0.591,1.309-1.597
								c0-2.491-3.736-2.73-3.736-5.875c0-1.725,0.798-2.794,2.474-2.794C291.973,282.697,292.772,283.798,292.772,285.491z"/>
							<path style="fill:#263238;" d="M295.116,288.956v5.029h-1.246v-11.177h1.246v5.03h2.746v-5.03h1.245v11.177h-1.245v-5.029
								H295.116z"/>
							<path style="fill:#263238;" d="M301.643,291.734l-0.431,2.251h-1.15l2.14-11.177h1.804l2.14,11.177H304.9l-0.431-2.251
								H301.643z M301.803,290.664h2.491l-1.261-6.45L301.803,290.664z"/>
							<path style="fill:#263238;" d="M309.607,282.808c1.756,0,2.491,0.895,2.491,2.555v0.91c0,1.23-0.43,1.996-1.389,2.299
								c1.022,0.303,1.405,1.134,1.405,2.331v1.74c0,0.495,0.016,0.957,0.223,1.341h-1.261c-0.144-0.319-0.208-0.607-0.208-1.357
								v-1.756c0-1.262-0.591-1.661-1.628-1.661h-0.878v4.774h-1.246v-11.177H309.607z M309.288,288.078
								c0.99,0,1.581-0.32,1.581-1.533v-1.069c0-1.006-0.367-1.533-1.293-1.533h-1.213v4.136H309.288z"/>
							<path style="fill:#263238;" d="M317.38,287.758v1.118h-2.73v3.975h3.353v1.134h-4.599v-11.177h4.599v1.134h-3.353v3.816
								H317.38z"/>
						</g>
					</g>
					<g>
						
							<rect x="342.326" y="275.478" style="fill:#E3E3E3;stroke:#263238;stroke-linecap:round;stroke-linejoin:round;stroke-miterlimit:10;" width="50.168" height="25.482"/>
						<g>
							<path style="fill:#263238;" d="M355.678,285.507v1.006h-1.181v-1.07c0-1.005-0.399-1.613-1.309-1.613
								c-0.894,0-1.309,0.607-1.309,1.613v5.908c0,1.006,0.415,1.612,1.309,1.612c0.91,0,1.309-0.607,1.309-1.612v-1.453h1.181
								v1.389c0,1.692-0.798,2.81-2.522,2.81c-1.709,0-2.507-1.118-2.507-2.81v-5.78c0-1.693,0.798-2.81,2.507-2.81
								C354.88,282.697,355.678,283.814,355.678,285.507z"/>
							<path style="fill:#263238;" d="M358.07,291.734l-0.431,2.251h-1.15l2.14-11.177h1.804l2.14,11.177h-1.246l-0.431-2.251
								H358.07z M358.229,290.664h2.491l-1.261-6.45L358.229,290.664z"/>
							<path style="fill:#263238;" d="M364.645,293.985h-1.118v-11.177h1.581l2.587,8.079v-8.079h1.101v11.177h-1.293l-2.857-9.037
								V293.985z"/>
							<path style="fill:#263238;" d="M375.004,285.507v1.006h-1.181v-1.07c0-1.005-0.399-1.613-1.309-1.613
								c-0.894,0-1.309,0.607-1.309,1.613v5.908c0,1.006,0.415,1.612,1.309,1.612c0.91,0,1.309-0.607,1.309-1.612v-1.453h1.181
								v1.389c0,1.692-0.798,2.81-2.522,2.81c-1.709,0-2.507-1.118-2.507-2.81v-5.78c0-1.693,0.798-2.81,2.507-2.81
								C374.206,282.697,375.004,283.814,375.004,285.507z"/>
							<path style="fill:#263238;" d="M380.11,287.758v1.118h-2.73v3.975h3.353v1.134h-4.599v-11.177h4.599v1.134h-3.353v3.816
								H380.11z"/>
							<path style="fill:#263238;" d="M381.88,293.985v-11.177h1.246v10.043h3.193v1.134H381.88z"/>
						</g>
					</g>
				</g>
			</g>
		</g>
	</g>
</g>
<g id="Character">
	<g>
		<g>
			<g>
				<path style="fill:#FFFFFF;stroke:#263238;stroke-linecap:round;stroke-linejoin:round;stroke-miterlimit:10;" d="
					M178.395,356.781l-3.516-0.057l0.765-48.158c0.008-0.507-0.359-0.933-0.873-1.012c-26.301-4.059-58.428,6.06-58.749,6.164
					l-1.071-3.35c1.344-0.429,33.228-10.475,60.356-6.289c2.232,0.343,3.888,2.297,3.853,4.543L178.395,356.781z"/>
			</g>
			<g>
				<g>
					<path style="fill:#263238;stroke:#263238;stroke-linecap:round;stroke-linejoin:round;stroke-miterlimit:10;" d="
						M85.463,444.818c-0.169,0-0.341-0.028-0.51-0.089c-0.779-0.282-1.183-1.142-0.901-1.921
						c6.742-18.652,15.157-49.964,15.242-50.278c0.215-0.8,1.038-1.27,1.837-1.061c0.8,0.215,1.275,1.037,1.06,1.838
						c-0.084,0.315-8.533,31.75-15.318,50.52C86.653,444.439,86.077,444.818,85.463,444.818z"/>
				</g>
				<g>
					<path style="fill:#263238;stroke:#263238;stroke-linecap:round;stroke-linejoin:round;stroke-miterlimit:10;" d="
						M199.545,446.275c-0.747,0-1.393-0.557-1.487-1.316l-9.872-80.156c-0.101-0.822,0.483-1.571,1.305-1.672
						c0.821-0.108,1.57,0.482,1.672,1.305l9.872,80.156c0.101,0.822-0.483,1.571-1.305,1.672
						C199.668,446.271,199.606,446.275,199.545,446.275z"/>
				</g>
			</g>
			<g>
				<path style="fill:#BABABA;stroke:#263238;stroke-linecap:round;stroke-linejoin:round;stroke-miterlimit:10;" d="
					M113.825,360.386l-34.248,28.482c0,0,19.956-3.201,30.023-2.744l21.735-19.447L113.825,360.386z"/>
				<path style="fill:#BABABA;stroke:#263238;stroke-linecap:round;stroke-linejoin:round;stroke-miterlimit:10;" d="
					M117.608,385.209l19.904-18.074l21.735,0.686l-14.642,17.159C144.604,384.98,126.759,383.836,117.608,385.209z"/>
				<path style="fill:#808080;stroke:#263238;stroke-linecap:round;stroke-linejoin:round;stroke-miterlimit:10;" d="
					M79.577,388.867v8.236c0,0,21.1-3.201,29.336-3.201l0.686-7.779C109.6,386.124,92.847,385.436,79.577,388.867z"/>
				<polygon style="fill:#696969;stroke:#263238;stroke-linecap:round;stroke-linejoin:round;stroke-miterlimit:10;" points="
					108.914,393.903 130.877,372.625 131.335,366.677 109.6,386.124 				"/>
				<path style="fill:#808080;stroke:#263238;stroke-linecap:round;stroke-linejoin:round;stroke-miterlimit:10;" d="
					M117.608,385.209l0.229,7.779c0,0,20.591,0,26.539,1.144l0.229-9.151C144.604,384.98,122.641,383.378,117.608,385.209z"/>
				<polygon style="fill:#696969;stroke:#263238;stroke-linecap:round;stroke-linejoin:round;stroke-miterlimit:10;" points="
					144.376,394.131 163.822,368.736 159.247,367.821 144.604,384.98 				"/>
				<path style="fill:#BABABA;stroke:#263238;stroke-linecap:round;stroke-linejoin:round;stroke-miterlimit:10;" d="
					M150.553,385.209c0,0,18.362,1.976,24.539,4.035l14.583-24.625l-24.251,2.745L150.553,385.209z"/>
				<path style="fill:#808080;stroke:#263238;stroke-linecap:round;stroke-linejoin:round;stroke-miterlimit:10;" d="
					M150.553,385.209l-0.229,8.923l23.853,3.348l0.915-8.236C175.092,389.243,156.501,385.438,150.553,385.209z"/>
				<polygon style="fill:#696969;stroke:#263238;stroke-linecap:round;stroke-linejoin:round;stroke-miterlimit:10;" points="
					174.177,397.48 190.59,369.651 189.675,364.618 175.092,389.243 				"/>
			</g>
			<path style="fill:#FFFFFF;stroke:#263238;stroke-linecap:round;stroke-linejoin:round;stroke-miterlimit:10;" d="
				M131.547,253.441l15.667,46c0,0,3.667,0.667,4.333,3c0.667,2.333,2.667,7.333,2.667,7.333l23,11.667l-6.333,7l-17.667-1.667
				c0,0-11.333-18.667-13.667-23.333c-2.333-4.667-7.667-22-9-25c-1.333-3-5-23-5-23S128.214,253.108,131.547,253.441z"/>
			<g>
				<path style="fill:#263238;stroke:#263238;stroke-linecap:round;stroke-linejoin:round;stroke-miterlimit:10;" d="
					M151.547,325.441c0,0,69,4,73,8.333c4,4.333-23,78-23,78l-14,28.667c0,0,9.333,12.667,11.333,13c2,0.333,10.667,4.667,10.667,7
					c0,2.333-4.667,2.667-5.667,2.667s-15-1.333-17-2.333s-6.667-5-9-5s-12.667-1.333-12.667-3c0-1.667,9-19,10-20
					s9.667-28.667,10-32.667c0.333-4,6.667-39.667,6.667-39.667s-55-4.333-58.667-7.667c-3.667-3.333-11.333-18-11.333-18
					L151.547,325.441z"/>
				<path style="fill:#FFFFFF;stroke:#263238;stroke-linecap:round;stroke-linejoin:round;stroke-miterlimit:10;" d="
					M198.88,453.441c-2-0.333-11.333-13-11.333-13l0.313-0.641c-5.863-0.821-10.711-3.743-13.469-5.767
					c-2.48,4.209-9.177,17.303-9.177,18.742c0,1.667,10.333,3,12.667,3c2.333,0,7,4,9,5s16,2.333,17,2.333s5.667-0.333,5.667-2.667
					C209.547,458.108,200.88,453.775,198.88,453.441z"/>
				<path style="fill:#FFFFFF;stroke:#263238;stroke-linecap:round;stroke-linejoin:round;stroke-miterlimit:10;" d="
					M198.88,453.441c-2-0.333-11.333-13-11.333-13l-4,4.333l-12.766-4.085c-2.684,5.179-5.568,11.142-5.568,12.085
					c0,1.667,10.333,3,12.667,3c2.333,0,7,4,9,5s16,2.333,17,2.333s5.667-0.333,5.667-2.667
					C209.547,458.108,200.88,453.775,198.88,453.441z"/>
			</g>
			<path style="fill:#BABABA;stroke:#263238;stroke-linecap:round;stroke-linejoin:round;stroke-miterlimit:10;" d="
				M177.214,321.441c0,0,7.667,3.333,9,5.333c1.333,2,6,13.333,6,13.333l-15.333-2.333l-5.945-10.979L177.214,321.441z"/>
			<g>
				<polygon style="fill:#BABABA;stroke:#263238;stroke-linecap:round;stroke-linejoin:round;stroke-miterlimit:10;" points="
					90.622,299.485 69.343,309.281 74.072,323.805 97.715,313.334 				"/>
				<polygon style="fill:#BABABA;stroke:#263238;stroke-linecap:round;stroke-linejoin:round;stroke-miterlimit:10;" points="
					75.76,329.884 79.814,348.124 99.742,337.315 95.351,319.751 				"/>
				<polygon style="fill:#BABABA;stroke:#263238;stroke-linecap:round;stroke-linejoin:round;stroke-miterlimit:10;" points="
					59.548,291.717 66.641,304.89 91.973,294.757 84.205,282.597 				"/>
				<polygon style="fill:#808080;stroke:#263238;stroke-linecap:round;stroke-linejoin:round;stroke-miterlimit:10;" points="
					69.343,309.281 66.776,312.107 71.253,325.042 74.072,323.805 				"/>
				<polygon style="fill:#808080;stroke:#263238;stroke-linecap:round;stroke-linejoin:round;stroke-miterlimit:10;" points="
					75.76,329.884 73.077,332.505 75.565,350.581 79.814,348.124 				"/>
				<polygon style="fill:#808080;stroke:#263238;stroke-linecap:round;stroke-linejoin:round;stroke-miterlimit:10;" points="
					66.641,304.89 64.288,306.801 58.152,294.197 59.548,291.717 				"/>
				<polygon style="fill:#696969;stroke:#263238;stroke-linecap:round;stroke-linejoin:round;stroke-miterlimit:10;" points="
					64.288,306.801 89.329,297.016 91.973,294.757 66.641,304.89 				"/>
			</g>
			<g>
				<path style="fill:#263238;stroke:#263238;stroke-linecap:round;stroke-linejoin:round;stroke-miterlimit:10;" d="
					M101.881,347.775c0,0,13,25,16.333,26.333c3.333,1.333,7.333,1.333,10.333,1.333s62-6.667,62-6.667s1.667,20,5.333,26.667
					c3.667,6.667,11.333,17.333,11.333,17.333l19.333,58.333c0,0,2.333,1,3.667,1c1.333,0,23.667-8.333,27.667-9.667
					c4-1.333,12-9,13-12s-2.333-2.333-6.667-2.333c-4.333,0-23.333-2.667-25.333-3c-2-0.333-4.333-1.667-4.333-1.667
					s-18-72.667-20.333-82c-2.333-9.333-2.667-18.333-5.333-19.667c-2.667-1.333-57.667-8.667-57.667-8.667l-11.333-4.333
					L101.881,347.775z"/>
				<path style="fill:#FFFFFF;stroke:#263238;stroke-linecap:round;stroke-linejoin:round;stroke-miterlimit:10;" d="
					M226.547,471.108c0,0,2.333,1,3.667,1s23.667-8.333,27.667-9.667c4-1.333,12-9,13-12s-2.333-2.333-6.667-2.333
					c-4.333,0-23.333-2.667-25.333-3c-2-0.333-4.333-1.667-4.333-1.667s-7.65,6.387-14.146,9.123L226.547,471.108z"/>
				<path style="fill:#FFFFFF;stroke:#263238;stroke-linecap:round;stroke-linejoin:round;stroke-miterlimit:10;" d="
					M264.214,448.108c-4.333,0-23.333-2.667-25.333-3c-0.295-0.049-0.596-0.124-0.896-0.209l-0.437,0.209l1,9.333l-15.871,4.988
					l3.871,11.679c0,0,2.333,1,3.667,1s23.667-8.333,27.667-9.667c4-1.333,12-9,13-12S268.547,448.108,264.214,448.108z"/>
			</g>
			<g>
				<path style="fill:#FFFFFF;stroke:#263238;stroke-linecap:round;stroke-linejoin:round;stroke-miterlimit:10;" d="
					M90.881,236.775c0,0-21.667,5.667-23,12c-1.333,6.333-2.333,16-2.333,16s-16.026,11.673-17.026,15.34
					c-1,3.667,4.026,16.66,14.026,15.327c10-1.333,22-7.333,22-7.333s10,47,11.333,53.333c1.333,6.333,5.333,10.333,10,7.667
					c4.667-2.667,46.333-20.333,47.333-22.333s-2.333-11-5.333-15s-8-13-8.333-14.333c-0.333-1.333-8-33.667-8-33.667s0-8,0-10.333
					c0-2.333-7-2.333-7-2.333l0.667-6l-18.667-8L90.881,236.775z"/>
				<g>
					<g>
						<path style="fill:#FFFFFF;stroke:#263238;stroke-linecap:round;stroke-linejoin:round;stroke-miterlimit:10;" d="
							M74.881,258.108c0,0,14.667,6,19.667,11.667"/>
						<path style="fill:none;stroke:#263238;stroke-linecap:round;stroke-linejoin:round;stroke-miterlimit:10;" d="M92.609,262.973
							c0.492,0.724,0.924,1.44,1.271,2.134"/>
						<path style="fill:none;stroke:#263238;stroke-linecap:round;stroke-linejoin:round;stroke-miterlimit:10;" d="M81.547,251.441
							c0,0,5.911,4.855,9.837,9.862"/>
						<path style="fill:#FFFFFF;stroke:#263238;stroke-linecap:round;stroke-linejoin:round;stroke-miterlimit:10;" d="
							M138.498,308.406c0.488,0.822,0.952,1.617,1.382,2.369c4,7,5.333,14.667,5.333,15.667"/>
						<path style="fill:#FFFFFF;stroke:#263238;stroke-linecap:round;stroke-linejoin:round;stroke-miterlimit:10;" d="
							M127.58,289.418c0.127,0.482,0.228,0.831,0.301,1.023c0.748,1.995,4.853,8.466,8.549,14.53"/>
						<path style="fill:#FFFFFF;stroke:#263238;stroke-linecap:round;stroke-linejoin:round;stroke-miterlimit:10;" d="
							M114.547,250.108l5.667,5c0,0,4.802,23.532,6.867,32.281"/>
					</g>
					<path style="fill:none;stroke:#263238;stroke-linecap:round;stroke-linejoin:round;stroke-miterlimit:10;" d="M134.59,330.085
						c1.776,0.439,3.247,0.689,4.29,0.689"/>
					<path style="fill:none;stroke:#263238;stroke-linecap:round;stroke-linejoin:round;stroke-miterlimit:10;" d="M94.881,314.775
						c0,0,22.426,10.06,35.868,14.226"/>
					<path style="fill:none;stroke:#263238;stroke-linecap:round;stroke-linejoin:round;stroke-miterlimit:10;" d="M110.508,330.126
						c5.044,0.395,13.282,0.982,17.706,0.982"/>
					<path style="fill:none;stroke:#263238;stroke-linecap:round;stroke-linejoin:round;stroke-miterlimit:10;" d="M106.214,329.775
						c0,0,0.764,0.066,2.024,0.17"/>
				</g>
			</g>
			<g>
				<g>
					<path style="fill:#BABABA;stroke:#263238;stroke-linecap:round;stroke-linejoin:round;stroke-miterlimit:10;" d="
						M127.735,197.937c0,0,0,21.401-0.973,29.183c-0.973,7.782-10.7,10.7-10.7,10.7l-0.973,8.755l-20.428-11.673l-1.621-30.156
						c0,0-5.837-5.512,12.322-13.294C123.52,183.669,127.087,194.694,127.735,197.937z"/>
					<polygon style="fill:#263238;stroke:#263238;stroke-linecap:round;stroke-linejoin:round;stroke-miterlimit:10;" points="
						116.062,237.82 106.01,234.253 115.089,246.575 					"/>
					<path style="fill:none;stroke:#263238;stroke-linecap:round;stroke-linejoin:round;stroke-miterlimit:10;" d="M118.98,207.664
						c0,0,1.945,9.079,0.973,11.025c-0.973,1.945-6.161,1.297-6.161,1.297"/>
					<path style="fill:none;stroke:#263238;stroke-linecap:round;stroke-linejoin:round;stroke-miterlimit:10;" d="M106.983,222.904
						c0,0,3.891,3.891,10.052,0.973"/>
					<path style="fill:#263238;" d="M109.63,211.149c0,0.898-0.486,1.627-1.084,1.627s-1.084-0.728-1.084-1.627
						c0-0.898,0.486-1.627,1.084-1.627S109.63,210.251,109.63,211.149z"/>
					<path style="fill:#263238;" d="M123.366,211.149c0,0.898-0.485,1.627-1.084,1.627s-1.085-0.728-1.085-1.627
						c0-0.898,0.486-1.627,1.085-1.627S123.366,210.251,123.366,211.149z"/>
					<path style="fill:none;stroke:#263238;stroke-linecap:round;stroke-linejoin:round;stroke-miterlimit:10;" d="M105.292,206.269
						c0,0,3.615-2.711,8.856-1.085"/>
					<path style="fill:none;stroke:#263238;stroke-linecap:round;stroke-linejoin:round;stroke-miterlimit:10;" d="M119.029,205.185
						c0,0,4.699-2.892,7.591,0.723"/>
				</g>
				<path style="fill:#263238;stroke:#263238;stroke-linecap:round;stroke-linejoin:round;stroke-miterlimit:10;" d="
					M94.986,212.204l5.188-11.025c0,0,0.973,1.945,3.891,0.648c2.918-1.297,15.564-10.376,15.564-10.376s7.458,10.376,11.673,11.025
					s1.297-4.864,1.297-4.864s5.512,2.918,6.485-0.324c0.973-3.243-2.27-7.134-2.27-7.134s10.052-0.324,7.133-5.188
					c-2.918-4.864-12.646-7.134-12.646-7.134s2.594-5.188-3.243-7.458c-5.837-2.27-16.861-1.621-16.861-1.621
					s0.324-2.918-3.891-2.918s-10.7,6.485-10.7,6.485s-6.161-5.512-8.106-2.27c-1.946,3.243,3.567,6.485,3.567,6.485
					s-13.619,5.512-13.619,10.376s4.215,4.215,4.215,4.215s-8.755,8.755-3.567,10.7c5.188,1.945,9.728-3.243,9.728-3.243
					s-2.594,2.918-2.594,5.837c0,2.918,4.215,7.458,4.215,7.458L94.986,212.204z"/>
				<path style="fill:#BABABA;stroke:#263238;stroke-linecap:round;stroke-linejoin:round;stroke-miterlimit:10;" d="
					M96.607,211.555c0,0-5.512-6.161-7.134-1.297c-1.621,4.864,1.946,7.782,3.891,9.403c1.945,1.621,3.242,0,3.242,0"/>
			</g>
			<polygon style="fill:#FFFFFF;stroke:#263238;stroke-linecap:round;stroke-linejoin:round;stroke-miterlimit:10;" points="
				91.881,230.108 89.547,237.441 114.547,251.441 115.547,242.775 			"/>
			<g>
				<g>
					<path style="fill:#FFFFFF;stroke:#263238;stroke-miterlimit:10;" d="M179.876,470.405c-1.015,0-1.884-0.768-1.987-1.8
						l-6.842-67.961c-0.111-1.099,0.69-2.079,1.79-2.19c1.096-0.112,2.08,0.69,2.19,1.79l6.842,67.961
						c0.111,1.099-0.69,2.079-1.79,2.19C180.011,470.402,179.943,470.405,179.876,470.405z"/>
				</g>
				<g>
					<g>
						<path style="fill:#FFFFFF;stroke:#263238;stroke-miterlimit:10;" d="M68.131,403.586c-0.84,0-1.623-0.534-1.899-1.377
							c-0.345-1.049,0.226-2.179,1.275-2.525c0.492-0.16,49.788-15.979,107.155-1.637c1.072,0.268,1.723,1.353,1.456,2.426
							c-0.269,1.071-1.356,1.725-2.425,1.455c-56.26-14.066-104.457,1.397-104.937,1.557
							C68.548,403.553,68.338,403.586,68.131,403.586z"/>
					</g>
					<g>
						<g>
							<path style="fill:#FFFFFF;stroke:#263238;stroke-linecap:round;stroke-linejoin:round;stroke-miterlimit:10;" d="
								M145.845,393.179l-3.999-0.065l0.87-54.778c0.009-0.577-0.409-1.061-0.993-1.151c-29.916-4.617-66.46,6.894-66.826,7.011
								l-1.218-3.811c1.528-0.488,37.796-11.915,68.653-7.153c2.539,0.391,4.423,2.612,4.382,5.168L145.845,393.179z"/>
						</g>
						<g>
							<path style="fill:#FFFFFF;stroke:#263238;stroke-linecap:round;stroke-linejoin:round;stroke-miterlimit:10;" d="
								M47.938,470.357c-0.202,0-0.407-0.031-0.61-0.096c-1.052-0.337-1.632-1.462-1.295-2.515l11.861-37.093
								c0.163-0.483,15.282-45.681,13.656-78.446c-1.616-32.544-17.613-56.402-17.774-56.64c-0.621-0.913-0.385-2.157,0.527-2.778
								c0.912-0.623,2.155-0.387,2.778,0.525c0.685,1.004,16.79,24.979,18.464,58.693c1.664,33.533-13.217,78.018-13.852,79.896
								l-11.85,37.061C49.571,469.815,48.785,470.357,47.938,470.357z"/>
						</g>
					</g>
				</g>
			</g>
			<g>
				<polygon style="fill:#263238;stroke:#263238;stroke-linecap:round;stroke-linejoin:round;stroke-miterlimit:10;" points="
					131.547,263.775 135.547,244.108 149.88,243.775 141.547,274.775 129.214,276.441 				"/>
				<path style="fill:#BABABA;stroke:#263238;stroke-linecap:round;stroke-linejoin:round;stroke-miterlimit:10;" d="
					M117.547,267.441l10.667-9.333l4.667-2l-1.667,6.333l15-1.667c0,0,2-0.333,0.333,1.667c-1.667,2-2.667,2.333-2.667,2.333
					s0,2.667-1,4c-1,1.333-5,4-5,4s-1.667,3.333-4,5c-2.333,1.667-6.333,2-9,1.333c-2.667-0.667-6-2-6-2l-49,15.667l6.333-17.333
					L117.547,267.441z"/>
				<path style="fill:#FFFFFF;stroke:#263238;stroke-linecap:round;stroke-linejoin:round;stroke-miterlimit:10;" d="
					M114.307,268.263c0,0-61.156,5.478-64.719,8.566c-7.138,6.186-5.374,16.612-4.707,19.279c0.667,2.667,4,4.333,7.333,4.333
					c3.333,0,64.948-19.805,64.948-19.805L114.307,268.263z"/>
			</g>
		</g>
	</g>
</g>
</svg>
